<?xml version="1.0" encoding="utf-8"?>
<!-- Generator: Adobe Illustrator 14.0.0, SVG Export Plug-In . SVG Version: 6.00 Build 43363)  -->
<!DOCTYPE svg PUBLIC "-//W3C//DTD SVG 1.1//EN" "http://www.w3.org/Graphics/SVG/1.1/DTD/svg11.dtd">
<svg version="1.1" id="Layer_1" focusable="false" xmlns="http://www.w3.org/2000/svg" xmlns:xlink="http://www.w3.org/1999/xlink"
	 x="0px" y="0px" width="612px" height="792px" viewBox="0 0 612 792" enable-background="new 0 0 612 792" xml:space="preserve">
<path fill="#FFFFFF" d="M297.893,281.526L102,442.867V617c0,9.389,7.611,17,17,17l119.063-0.309c9.355-0.046,16.915-7.644,16.915-17
	V515c0-9.389,7.611-17,17-17h68c9.389,0,17,7.611,17,17v101.617c-0.029,9.389,7.558,17.024,16.946,17.054c0.018,0,0.036,0,0.054,0
	L493,634c9.389,0,17-7.611,17-17V442.75L314.149,281.526C309.406,277.702,302.637,277.702,297.893,281.526L297.893,281.526z
	 M607.324,391.187L518.5,317.97V170.803c0-7.042-5.709-12.75-12.75-12.75h-59.5c-7.042,0-12.75,5.708-12.75,12.75v77.148
	l-95.126-78.264c-18.827-15.493-45.985-15.493-64.813,0l-268.95,221.5c-5.428,4.486-6.191,12.522-1.705,17.95
	c0.002,0.002,0.003,0.004,0.005,0.006l27.094,32.938c4.473,5.438,12.508,6.222,17.946,1.748c0.007-0.005,0.014-0.011,0.021-0.017
	l249.921-205.849c4.744-3.824,11.512-3.824,16.256,0l249.933,205.849c5.425,4.489,13.462,3.73,17.951-1.694
	c0.002-0.002,0.003-0.004,0.005-0.006l27.094-32.938c4.471-5.44,3.686-13.475-1.754-17.945
	C607.36,391.215,607.342,391.201,607.324,391.187L607.324,391.187z"/>
</svg>
