<?xml version="1.0" encoding="utf-8"?>
<!-- Generator: Adobe Illustrator 14.0.0, SVG Export Plug-In . SVG Version: 6.00 Build 43363)  -->
<!DOCTYPE svg PUBLIC "-//W3C//DTD SVG 1.1//EN" "http://www.w3.org/Graphics/SVG/1.1/DTD/svg11.dtd">
<svg version="1.1" id="Layer_1" focusable="false" xmlns="http://www.w3.org/2000/svg" xmlns:xlink="http://www.w3.org/1999/xlink"
	 x="0px" y="0px" width="612px" height="792px" viewBox="0 0 612 792" enable-background="new 0 0 612 792" xml:space="preserve">
<path fill="#FFFFFF" d="M594.536,522.464l-133.875-57.375c-11.749-5.007-25.392-1.645-33.469,8.248l-59.288,72.436
	c-93.046-43.87-167.927-118.751-211.797-211.797l72.437-59.288c9.913-8.063,13.279-21.722,8.247-33.469l-57.375-133.875
	c-5.545-12.713-19.346-19.689-32.871-16.615L22.233,119.417C9.216,122.422-0.003,134.016,0,147.375
	C0,453.973,248.505,702,554.625,702c13.363,0.009,24.963-9.212,27.97-22.232l28.688-124.313
	C614.337,541.864,607.309,528.021,594.536,522.464L594.536,522.464z"/>
</svg>
