<?xml version="1.0" encoding="utf-8"?>
<!-- Generator: Adobe Illustrator 16.0.0, SVG Export Plug-In . SVG Version: 6.00 Build 0)  -->
<!DOCTYPE svg PUBLIC "-//W3C//DTD SVG 1.1//EN" "http://www.w3.org/Graphics/SVG/1.1/DTD/svg11.dtd">
<svg version="1.1" id="Layer_1" xmlns="http://www.w3.org/2000/svg" xmlns:xlink="http://www.w3.org/1999/xlink" x="0px" y="0px"
	 width="146px" height="700px" viewBox="0 0 146 700" enable-background="new 0 0 146 700" xml:space="preserve">
<g>
	<path fill="#B29C7F" stroke="#FFFFFF" stroke-miterlimit="10" d="M89.317,548.09c0,0,36.334,74.999,42.5,84.333
		s14.499,19.501,16.166,20.834l-1.667-1.333l-5.999,7.999l4.333,6l-5,6.334l-4.833-3.667l-1.834,0.833l-12.166-13l3.5,13.834l-4,2
		l1.835,2.833l-9.169,4.333l-5.5-10l-1.688,10l-17.312,2.667v2.667l-11.5-7.667l-1.666,7l-5,0.667l-9-1.834l-4.833,3.334l-5.167-4
		l0.667-6.667l-3.5-8.833l-4.5,10.166l-10.667-0.5l7-37.5c0,0,8.5-22.499,11.333-27.666c0,0-6.857,8.283-16.114,32
		c-0.886,2.27-4.886,23.666-4.886,23.666l-6.833-2.5c0,0,7.167-31.666,15-44.833s20.681-36.501,15.507-55.167
		S89.317,548.09,89.317,548.09z"/>
	<path fill="#B29C7F" stroke="#FFFFFF" stroke-miterlimit="10" d="M11.15,522.756c0,0-10.643,14.333-7.821,21.833
		s10.166,28,24.494,29s54.742-13.5,61.785-21.5s17.543-17.5,16.043-38.5S32.65,509.423,11.15,522.756z"/>
	<path fill="#B29C7F" stroke="#FFFFFF" stroke-miterlimit="10" d="M84.575,18.089c-13.843-5.31-18.609,4.412-42.5,41.333
		c-7.333,11.333-9.03,37.06-5.697,42.393s1.364-7.061,7.031-17.394c8.688-15.842,34.666-42.666,40.666-36.999
		C84.075,47.422,102.825,25.089,84.575,18.089z"/>
	<path fill="#B29C7F" stroke="#FFFFFF" stroke-miterlimit="10" d="M84.075,47.422c0,0,5.5,6.917,4,14.167
		s-4.232,12.155-6.918,15.254c-4.666,5.383-17.582,14.996-24.582,19.746s-15,15.25-16.25,19.25c0,0-6.75-9-2.5-22.25
		S75.408,40.422,84.075,47.422z"/>
	<path fill="#B29C7F" stroke="#FFFFFF" stroke-miterlimit="10" d="M85.349,72.922c0,0,5.5,6.917,4,14.167
		s-4.232,12.155-6.918,15.254c-4.666,5.383-17.582,14.996-24.582,19.746s-15,15.25-16.25,19.25c0,0-6.75-9-2.5-22.25
		S76.682,65.922,85.349,72.922z"/>
	<path fill="#B29C7F" stroke="#FFFFFF" stroke-miterlimit="10" d="M84.075,103.914c0,0,5.5,6.917,4,14.167
		s-4.232,12.155-6.918,15.254c-4.666,5.383-17.582,14.996-24.582,19.746s-15,15.25-16.25,19.25c0,0-6.75-9-2.5-22.25
		S75.408,96.914,84.075,103.914z"/>
	<path fill="#B29C7F" stroke="#FFFFFF" stroke-miterlimit="10" d="M85.349,129.914c0,0,5.5,6.917,4,14.167
		s-4.232,12.155-6.918,15.254c-4.666,5.383-17.582,14.996-24.582,19.746s-15,15.25-16.25,19.25c0,0-6.75-9-2.5-22.25
		S76.682,122.914,85.349,129.914z"/>
	<path fill="#B29C7F" stroke="#FFFFFF" stroke-miterlimit="10" d="M82.397,164.53c0,0,5.5,6.917,4,14.167
		s-4.232,12.155-6.918,15.254c-4.666,5.383-17.582,14.996-24.582,19.746s-15,15.25-16.25,19.25c0,0-6.75-9-2.5-22.25
		S73.73,157.53,82.397,164.53z"/>
	<path fill="#B29C7F" stroke="#FFFFFF" stroke-miterlimit="10" d="M85.349,189.53c0,0,5.5,6.917,4,14.167
		s-4.232,12.155-6.918,15.254c-4.666,5.383-17.582,14.996-24.582,19.746s-15,15.25-16.25,19.25c0,0-6.75-9-2.5-22.25
		S76.682,182.53,85.349,189.53z"/>
	<path fill="#B29C7F" stroke="#FFFFFF" stroke-miterlimit="10" d="M84.075,217.906c0,0,5.5,6.917,4,14.167
		s-4.232,12.155-6.918,15.254c-4.666,5.383-17.582,14.996-24.582,19.746s-15,15.25-16.25,19.25c0,0-6.75-9-2.5-22.25
		S75.408,210.906,84.075,217.906z"/>
	<path fill="#B29C7F" stroke="#FFFFFF" stroke-miterlimit="10" d="M88.3,243.906c0,0,5.5,6.917,4,14.167s-4.232,12.155-6.918,15.254
		C80.716,278.71,67.8,288.322,60.8,293.072s-15,15.25-16.25,19.25c0,0-6.75-9-2.5-22.25S79.633,236.906,88.3,243.906z"/>
	<path fill="#B29C7F" stroke="#FFFFFF" stroke-miterlimit="10" d="M85.349,275.405c0,0,5.5,6.917,4,14.167
		s-4.232,12.155-6.918,15.254c-4.666,5.384-17.582,14.996-24.582,19.746s-15,15.25-16.25,19.25c0,0-6.75-9-2.5-22.25
		S76.682,268.405,85.349,275.405z"/>
	<path fill="#B29C7F" stroke="#FFFFFF" stroke-miterlimit="10" d="M90.849,296.405c0,0,5.5,6.917,4,14.167
		s-4.232,12.155-6.918,15.254c-4.666,5.384-17.582,14.996-24.582,19.746s-15,15.25-16.25,19.25c0,0-6.75-9-2.5-22.25
		S82.182,289.405,90.849,296.405z"/>
	<path fill="#B29C7F" stroke="#FFFFFF" stroke-miterlimit="10" d="M93.349,320.905c0,0,5.5,6.917,4,14.167
		s-4.232,12.155-6.918,15.254c-4.666,5.384-17.582,14.996-24.582,19.746s-15,15.25-16.25,19.25c0,0-6.75-9-2.5-22.25
		S84.682,313.905,93.349,320.905z"/>
	<path fill="#B29C7F" stroke="#FFFFFF" stroke-miterlimit="10" d="M93.349,351.522c0,0,5.5,6.917,4,14.167
		s-4.232,12.155-6.918,15.254c-4.666,5.384-17.582,14.996-24.582,19.746s-15,15.25-16.25,19.25c0,0-6.75-9-2.5-22.25
		S84.682,344.522,93.349,351.522z"/>
	<path fill="#B29C7F" stroke="#FFFFFF" stroke-miterlimit="10" d="M93.349,383.473c0,0,5.5,6.917,4,14.167
		s-4.232,12.155-6.918,15.254c-4.666,5.384-17.582,14.996-24.582,19.746s-15,15.25-16.25,19.25c0,0-6.75-9-2.5-22.25
		S84.682,376.473,93.349,383.473z"/>
	<path fill="#B29C7F" stroke="#FFFFFF" stroke-miterlimit="10" d="M52.317,461.756c0,0-20.667-9.744-37.667,5.795
		s-10,26.206-9.333,37.539s1,19.666,6,22.666s24.103-3.214,25.103-1.214c0,0,12.771-10.912,19.105-10.578
		C55.525,515.964,85.047,497.591,52.317,461.756z"/>
	<path fill="#B29C7F" stroke="#FFFFFF" stroke-miterlimit="10" d="M89.607,437.756c0,0,8.525,9.334,2.951,24.334
		s-24.338,33-25.956,35.333s-26.417-8.829-16.716-19.015C51.602,476.607,74.897,434.089,89.607,437.756z"/>
	<path fill="#B29C7F" stroke="#FFFFFF" stroke-miterlimit="10" d="M93.349,410.757c0,0,5.5,6.917,4,14.167
		s-4.232,12.155-6.918,15.254c-4.666,5.384-17.582,14.996-24.582,19.746s-15,15.25-16.25,19.25c0,0-6.75-9-2.5-22.25
		S84.682,403.757,93.349,410.757z"/>
	<path fill="#B29C7F" stroke="#FFFFFF" stroke-miterlimit="10" d="M89.607,460.423c0,0-31.254,28.999-42.272,62.333
		c0,0,18.982-12.332,33.982-12.666s33.667-30.668,33.667-35.334S101.564,454.756,89.607,460.423z"/>
	<path fill="#B29C7F" stroke="#FFFFFF" stroke-miterlimit="10" d="M110.65,475.589c0,0,5.5-2.83,7,3.585s9.334,27.249,0,36.415
		c-6.385,6.27-25.333,13.001-44.846,11.196c-20.002-1.85-38.821,1.805-38.821,1.805s19.668-23.001,37.667-25.501
		S96.65,482.589,110.65,475.589z"/>
	<path fill="none" stroke="#FFFFFF" stroke-miterlimit="10" d="M20.707,463.096c0,0-7.057,21.997-3.557,34.495
		s16.599,16.127,27.753,18.627"/>
	<path fill="#B29C7F" stroke="#FFFFFF" stroke-miterlimit="10" d="M52.317,510.504"/>
</g>
</svg>
