<?xml version="1.0" encoding="utf-8"?>
<!-- Generator: Adobe Illustrator 16.0.0, SVG Export Plug-In . SVG Version: 6.00 Build 0)  -->
<!DOCTYPE svg PUBLIC "-//W3C//DTD SVG 1.1//EN" "http://www.w3.org/Graphics/SVG/1.1/DTD/svg11.dtd">
<svg version="1.1" id="Layer_1" xmlns="http://www.w3.org/2000/svg" xmlns:xlink="http://www.w3.org/1999/xlink" x="0px" y="0px"
	 width="800px" height="310px" viewBox="0 0 800 310" enable-background="new 0 0 800 310" xml:space="preserve">
<g>
	<path fill="#FFFFFF" d="M341.066,62.104c0,0-65.522-5.693-70.181-5.831S140.169,44.352,140.169,44.352s-61.933,0.959-105.23-25.074
		c-6.158-3.702-12.743-8.633-9.592-10.551c3.152-1.918,13.839-4.247,17.675-4.384c3.837-0.138,38.502,5.344,49.601,4.795
		c11.098-0.547,42.613-5.343,53.711-4.384c11.098,0.959,131.401,25.832,143.87,27.919c12.468,2.088,153.186,35.658,153.186,35.658
		s151.405,43.71,167.848,48.78c16.442,5.069,92.725,25.76,154.558,66.453c17.438,11.476,31.824,33.569,35.763,44.941
		c2.396,6.921,6.302,20.828-17.676,31.79c-23.978,10.961-101.53,19.455-114.41,20.689c-12.88,1.231-194.566,12.331-194.566,12.331
		s-148.289,4.385-161.425,5.343C300.344,299.619,160.721,294,154.419,294l-12.879,13.292c0,0,26.435,1.37,52.542,1.37
		c26.107,0,135.69,2.191,148.038,2.191c12.347,0,128.814-2.466,157.039-4.931c28.227-2.468,192.376-14.252,212.38-16.992
		c20.005-2.739,77.648-9.954,85.876-29.562c6.165-14.694-4.11-31.444-9.865-39.256c-6.808-9.239-37.646-36.412-55.731-47.374
		c-18.087-10.962-102.49-39.462-115.644-43.298c-13.154-3.837-98.654-28.226-98.654-28.226S321.273,51.34,313.481,49.147
		S157.193,20.689,144.828,19.003c-33.159-4.521-42.542-16.348-58.645-17.836C61.246-1.138-8.085,2.835,5.617,13.522
		C19.318,24.21,42.337,37.913,65.63,41.474c23.294,3.563,126.879,11.236,140.308,12.332c13.428,1.096,127.154,11.63,135.375,12.255"
		/>
	<path fill="#D6BE97" d="M339.585,70.386c0,0-0.026-5.857,0-6.269c0.026-0.411,0.748-2.158,2.545-2.364
		c1.796-0.205,3.955,1.439,4.366,4.316c0.411,2.878,0.514,3.699,0.514,3.699L339.585,70.386z"/>
	<path fill="#F7C9BC" d="M362.414,245.771c0,0,4.795,3.151,14.524,2.875c9.728-0.272,12.194,0.994,13.564,0.018
		c1.371-0.976,0.959-2.208,0.959-2.208s6.715,2.174,11.509,0.95c4.797-1.225,6.439-1.361,2.193-2.868
		c-4.248-1.507-19.017-6.202-25.882-6.392c-6.866-0.186-9.88,5.159-10.017,6.254C369.127,245.497,362.414,245.771,362.414,245.771z"
		/>
	<g>
		<path fill="#EFF1F3" d="M374.745,231.521c-3.082-1.438-1.233-8.221-1.644-13.565c-0.411-5.343-8.284-36.994-8.664-42.956
			c-0.379-5.96-4.079-23.43-6.135-27.54c-0.171-0.342-0.373-0.695-0.568-1.046c-1.722,4.31-5.735,13.094-13.681,24.819
			c-1.908,2.813-5.567,7.863-8.672,11.801c0.116,1.228,0.37,3.009,0.931,4.915c1.027,3.494,0,7.604,0,10.688
			s1.849,8.427,3.288,12.948s7.604,14.592,10.071,18.292c2.466,3.698,9.249,15.209,10.071,16.441c0.822,1.234,10.688,1.028,12.948,0
			c2.261-1.026,3.494-9.864,9.455-8.221C382.145,238.097,377.828,232.96,374.745,231.521z"/>
		<path opacity="0.3" fill="#262529" d="M226.952,159.231c-1.626,0.303-2.447,0.354-2.447,0.354S223.934,161.468,226.952,159.231z"
			/>
		<path fill="#262529" d="M357.734,146.413c-2.161-3.873-5.753-8.296-9.218-12.97c-3.778-5.098-25.976-30.789-38.102-24.624
			c0,0-34.94,21.787-45.421,28.774c-10.482,6.987-21.169,12.537-22.608,13.359s-8.016,1.85-13.36,6.577
			c-0.838,0.742-1.511,1.285-2.073,1.701c1.746-0.325,4.417-0.943,8.035-2.112c6.987-2.262,15.003-0.822,20.347,0
			s8.998-0.822,12.104,0.205s-0.799,77.074-3.678,81.183c0,0,6.167,7.399,8.222,2.674c2.056-4.728,2.878-0.412,4.11-2.262
			c1.234-1.851,3.905-4.521,6.784-12.127c2.877-7.604,14.181-0.82,12.536-7.397c-1.643-6.578,10.688-12.948,16.237-17.06
			c5.549-4.11,10.892,0.206,23.635-20.964c0,0,0.001,0.64,0.098,1.662c3.105-3.938,6.765-8.987,8.672-11.801
			C351.999,159.507,356.012,150.723,357.734,146.413z"/>
	</g>
	<path fill="#F7C9BC" d="M367.141,99.571c-3.7-16.237-16.032-13.565-24.664-13.771c-8.633-0.205-12.126,17.059-12.126,17.059
		c-2.055-2.261-7.604-9.249-7.811-0.206c-0.205,9.043,5.345,10.071,5.345,10.071c-5.089,9.442,8.837,36.79,10.071,35.557
		c1.233-1.233,5.343-4.521,5.754-6.988c0.412-2.467,1.414-8.77,1.414-8.77l-0.002-0.001c1.954,0.772,4.101,1.167,6.604,1.167
		c4.728,0,10.071-5.754,13.771-15.62C369.195,108.203,367.141,99.571,367.141,99.571z"/>
	<g>
		<path fill="none" d="M319.148,199.526c0.318-0.368,0.633-0.735,0.938-1.115c-0.197,0.107-0.383,0.199-0.574,0.298
			C319.391,198.984,319.271,199.26,319.148,199.526z"/>
		<path fill="#EEEA4D" d="M326.24,142.218c-0.719-8.529-2.289-20.248-6.673-27.643c-2.442-4.118-4.595-5.932-6.086-6.727
			c-2.125,0.03-3.802,0.186-3.802,0.186c9.888-0.793,10.943,25.108,12.176,32.918c1.233,7.81,1.505,27.189,0.68,37.516
			c-1.507,18.865-9.189,22.84-9.189,22.84c0.897-0.543,3.229-1.077,6.166-2.599c2.825-6.42,5.25-15.267,6.924-23.436
			C328.182,166.744,326.96,150.747,326.24,142.218z"/>
		<path fill="#CE2028" d="M332.543,125.879c-2.329-5.07-4.502-13.236-11.373-16.99c-1.188-0.65-3.227-0.919-5.259-1.008
			c1.154,0.458,2.3,1.089,3.136,1.967c2.891,3.037,8.483,13.23,10.332,19.91c1.85,6.68,2.938,18.565,3.027,21.607
			c0.106,3.597,1.169,14.089-2.261,26.513c-1.492,5.406-4.73,13.886-10.059,20.534c2.493-1.37,5.369-3.468,8.167-6.869
			c6.396-7.778,8.565-22.096,8.675-38.248C337.037,137.144,334.872,130.948,332.543,125.879z"/>
		<path fill="#3C469B" d="M332.406,151.364c-0.09-3.042-1.177-14.927-3.027-21.607c-1.849-6.68-7.441-16.874-10.332-19.91
			c-0.835-0.878-1.982-1.509-3.136-1.967c-0.831-0.036-1.66-0.043-2.43-0.032c1.491,0.795,3.644,2.608,6.086,6.727
			c4.384,7.396,5.955,19.114,6.673,27.643c0.72,8.529,1.941,24.526,0.195,33.056c-1.673,8.169-4.099,17.016-6.924,23.436
			c0.191-0.099,0.377-0.19,0.574-0.298c5.329-6.648,8.567-15.128,10.059-20.534C333.575,165.453,332.512,154.961,332.406,151.364z"
			/>
	</g>
	<path fill="#EFF1F3" d="M325.659,87.416c0,0-1.036-8.171,4.102-11.87c5.138-3.7,8.169-5.55,15.594-5.755
		c7.425-0.205,13.181,0.204,17.291,7.193c4.111,6.989,0.823,7.604,0,8.016C361.824,85.41,325.873,96.614,325.659,87.416z"/>
	<path fill="#262529" d="M367.552,102.106c0,0-20.964-2.672-37.201,2.055c0,0-1.717,0.191-4.522-3.014
		c-1.977-2.261-2.025-8.064-1.355-10.55c0.868-3.222,3.35-5.681,4.37-7.26c1.186-1.836,8.453-4.518,13.976-3.7
		c19.869,2.944,20.553-1.095,21.786,0.755C365.838,82.241,368.569,89.5,367.552,102.106"/>
	<path fill="#F7C9BC" d="M126.056,229.644c-0.616-0.23-3.706-1.705-6.782-2.979c-0.046-0.019-0.105-0.036-0.153-0.056
		c-1.363,3.433-3.09,9.211-2.784,15.923c5.08-0.324,7.047,1.732,7.047,1.732S126.672,229.876,126.056,229.644z"/>
	<path fill="#3C469B" d="M290.748,216.945c0.417-1.496,0.697-3.139,0.879-4.521c-0.84-1.348-1.631-2.845-2.176-4.54
		c-1.85-5.755-25.348-45.832-29.494-51.596c-2.261-3.144-12.776-7.958-15.989-6.199c0,0,4.625,1.175,5.52,1.449
		c10.352,3.185,6.051,9.074,10.47,12.568c4.418,3.493,15.928,28.362,20.45,32.684c2.832,2.705,3.406,8.307,3.44,12.975
		C285.892,210.632,289.957,212.839,290.748,216.945z"/>
	<path fill="#F7C9BC" d="M295.914,161.332c0,0,2.581,2.877,8.746,4.419c6.166,1.541,5.549,0.048,6.474,1.104
		c0.925,1.055,4.197,3.504,6.561,2.374c2.363-1.131,6.593,1.66,14.712,0.838c8.118-0.821,8.221-1.914,10.379-4.81
		c2.158-2.896-3.597-7.213-6.68-10.193c-3.083-2.979-11.202-1.645-18.189,0s-6.063-1.77-14.616,0
		C298.135,156.132,295.521,158.352,295.914,161.332z"/>
	<path fill="#EFF1F3" d="M280.613,112.725c0,0,12.126-2.671,18.292-4.316c6.167-1.644,11.099-2.055,13.154,2.158
		c2.054,4.214,2.877,10.791-3.289,25.177l-7.399,7.81c0,0,13.771,9.454,15.004,12.332c1.233,2.877-3.7,10.481-10.072,10.687
		c-6.372,0.206-12.948,1.028-18.909-1.644c-5.959-2.672-18.813-6.079-21.122-7.869c-2.309-1.791,1.802-22.138,4.269-25.837
		c2.466-3.7,5.138-11.105,6.166-14.185C277.736,113.958,280.613,112.725,280.613,112.725z"/>
	<path fill="#EFF1F3" d="M221.626,161.758c0,0,12.636-4.961,16.386-5.384c3.75-0.424,21.527-0.813,28.262,0.686
		c6.735,1.497,22.324,7.253,24.805,15.063c2.483,7.81-1.011,15.003-3.066,18.702c-2.055,3.7-4.728,5.55-6.988,11.51
		c-2.26,5.961-4.934,15.209-12.332,17.265c-7.399,2.055-6.372,3.494-7.194,8.632c-0.822,5.139-2.26,9.865-3.288,10.894
		c-1.028,1.026-15.621,5.212-17.881,3.635c-2.261-1.579-2.261-1.574-2.261-5.896c0-4.728,1.326-15.401,3.579-22.896
		c1.766-5.878-7.339-2.384-15.941-7.111c-8.602-4.727-14.151-10.688-12.302-19.73C215.255,178.082,216.301,164.284,221.626,161.758z
		"/>
	<path fill="none" stroke="#CACCCD" stroke-miterlimit="10" d="M248.14,170.222c0,0-10.482,8.066-13.153,8.478
		c-2.672,0.411-8.719,4.933-10.525,8.016"/>
	<path fill="#FFFFFF" d="M255.137,241.838c0,0,7.811,7.007,9.455,9.884c1.644,2.876,1.233,0,3.493,2.672
		c2.261,2.672,9.249,5.343,7.605,8.221c-1.645,2.877-8.837,3.494-11.098,3.698c-2.261,0.208-15.826-1.026-18.909-2.875
		c-3.083-1.852-7.853-4.934-8.757-7.811c-0.903-2.878,0.124-10.726,1.152-13.789C239.106,238.773,251.839,238.765,255.137,241.838z"
		/>
	<path fill="none" stroke="#CACCCD" stroke-miterlimit="10" d="M273.625,168.218c0,0-6.988,5.549-9.66,8.633"/>
	<path fill="none" stroke="#CACCCD" stroke-miterlimit="10" d="M267.459,168.218c0,0-10.277,8.838-22.403,27.129"/>
	<path fill="#EFF1F3" d="M219.615,202.822c0,0-11.348,6.501-13.814,7.939s-10.482,8.222-11.921,9.659
		c-1.438,1.439-9.865,9.865-12.947,10.894c-3.083,1.027-18.293-5.139-22.198-5.139c-3.905,0-7.811-2.876-11.304-1.645
		c-3.494,1.234-22.197,1.03-23.841,1.03c-1.645,0-3.905,15.823-2.466,19.113c1.439,3.287,3.083,13.153,10.687,12.946
		c7.604-0.204,8.016-2.254,11.51,0.003c3.495,2.259,3.905,2.875,17.47,2.259c13.565-0.616,29.596-0.165,36.585,0.227
		c6.988,0.39,21.785-1.459,24.869-4.337c3.083-2.877,19.343-17.754,25.896-15.209c2.704,1.05,12.952,1.725,14.387-2.261
		c3.699-10.276,16.442-47.684-22.402-37.406C232.408,202.937,221.652,201.654,219.615,202.822z"/>
	<path fill="none" stroke="#CACCCD" stroke-miterlimit="10" d="M273.625,181.782c0,0-9.66,18.292-27.335,39.05"/>
	<path fill="none" stroke="#CACCCD" stroke-miterlimit="10" d="M220.188,204.185c0,0,8.123,8.011,16.112,6.504
		c1.867-0.351,8.405-0.338,3.678,10.144c-2.439,5.408-3.22,17.675-1.863,18.705"/>
	<path fill="#EEEA4D" d="M291.627,212.425c-0.182,1.382-0.462,3.024-0.879,4.521l0,0l0,0c-0.169,0.611-0.359,1.198-0.578,1.729
		c-1.06,2.576-2.731,5.236-3.002,7.99c1.065-0.755,1.729-0.672,3.911-0.504c2.672,0.206,4.76-4.715,4.796-6.055
		C295.933,218.01,293.636,215.65,291.627,212.425z"/>
	<path fill="#CE2028" d="M290.748,216.945c-0.791-4.106-4.856-6.313-6.9-7.18c0.021,2.786-0.152,5.239-0.152,6.546
		c0,3.493-1.424,12.013-1.281,11.655c0.144-0.355,2.309,0.772,3.953-0.66c0.301-0.262,0.561-0.474,0.8-0.643
		c0.271-2.754,1.942-5.414,3.002-7.99C290.389,218.144,290.579,217.557,290.748,216.945z"/>
	<path fill="none" stroke="#CACCCD" stroke-miterlimit="10" d="M278.558,137.047c0,0,12.331-1.714,20.141,6.507"/>
	<path fill="none" stroke="#CACCCD" stroke-miterlimit="10" d="M354.603,183.33c0,0-4.288,11.742-8.309,16.196
		c-4.023,4.453-1.172,12.898-1.172,12.898"/>
	<path fill="none" stroke="#CACCCD" stroke-miterlimit="10" d="M263.965,221.86c0,0-9.174,6.371-11.472,17.677"/>
	<path fill="none" stroke="#CACCCD" stroke-miterlimit="10" d="M370.634,232.342c0,0-4.521-0.131-8.221,10.418"/>
	<path fill="#FFFFFF" d="M119.121,226.608c-3.185-1.236-11.365-1.872-11.908-1.872c-0.55,0-7.67-1.231-9.315-1.437
		c-1.644-0.206-4.521,0.41-5.549,3.364c-1.028,2.953,0.821,10.404-0.206,12.873c-1.027,2.464-1.85,9.454,0,14.04
		c1.849,4.588,5.549,6.922,6.372,9.39c0.822,2.465,5.549,2.055,5.549,0c0-2.056,0.41-8.633,1.644-12.745
		c1.233-4.108,2.055-6.369,8.632-7.462c0.717-0.12,1.376-0.189,1.997-0.229C116.031,235.819,117.757,230.041,119.121,226.608z"/>
	<path fill="none" stroke="#262529" stroke-width="2" stroke-miterlimit="10" d="M332.645,101.626c0,0-1.574,13.565,6.133,23.739
		c5.488,7.242,10.595,9.224,12.948,8.323"/>
	<path fill="#262529" stroke="#262529" stroke-width="2" stroke-miterlimit="10" d="M344.618,131.383c0,0-4.333-3.997-6.868-2.49
		S334.427,133.255,344.618,131.383z"/>
	<path fill="none" stroke="#262529" stroke-width="2" stroke-miterlimit="10" d="M334.53,147.186
		c0-0.275,2.842-11.942,10.088-15.803"/>
	<path fill="none" stroke="#262529" stroke-width="2" stroke-miterlimit="10" d="M356.589,162.668
		c-0.068-0.343-7.01-23.036-12.514-30.975"/>
</g>
</svg>
