<?xml version="1.0" encoding="utf-8"?>
<!-- Generator: Adobe Illustrator 16.0.0, SVG Export Plug-In . SVG Version: 6.00 Build 0)  -->
<!DOCTYPE svg PUBLIC "-//W3C//DTD SVG 1.1//EN" "http://www.w3.org/Graphics/SVG/1.1/DTD/svg11.dtd">
<svg version="1.1" id="Layer_1" xmlns="http://www.w3.org/2000/svg" xmlns:xlink="http://www.w3.org/1999/xlink" x="0px" y="0px"
	 width="287px" height="107px" viewBox="0 0 287 107" enable-background="new 0 0 287 107" xml:space="preserve">
<g>
	<g>
		<g>
			<g>
				<polygon fill="#DDDDDD" points="188.437,31.557 196.869,31.557 196.869,23.227 185.701,23.227 185.701,25.983 193.877,25.983 
					193.877,28.822 185.44,28.822 185.44,37.068 199.266,37.068 199.266,34.331 188.437,34.331 				"/>
				<rect x="201.361" y="22.518" fill="#DDDDDD" width="2.994" height="15.074"/>
				<path fill="#DDDDDD" d="M192.643,39.01h-3.016v9.956h14.729v-9.936h-3.007v2.311h-8.706V39.01z M201.349,43.872v2.437h-8.706
					v-2.437H201.349z"/>
			</g>
			<g>
				<rect x="226.038" y="22.518" fill="#DDDDDD" width="2.994" height="24.302"/>
				<path fill="#DDDDDD" d="M209.051,37.931h12.758V23.227h-12.758V37.931z M212.043,25.928h6.771v9.298h-6.771V25.928z"/>
			</g>
			<g>
				<polygon fill="#DDDDDD" points="267.992,32.433 270.984,32.433 270.984,23.227 258.855,23.227 258.855,26.054 267.992,26.054 
									"/>
				<polygon fill="#DDDDDD" points="264.976,30.026 261.98,30.026 261.98,34.558 257.336,34.558 257.336,37.172 272.386,37.172 
					272.386,34.558 264.976,34.558 				"/>
				<polygon fill="#DDDDDD" points="277.228,22.525 274.236,22.525 274.236,38.875 277.228,38.875 277.228,31.366 280.811,31.366 
					280.811,28.609 277.228,28.609 				"/>
				<polygon fill="#DDDDDD" points="264.023,40.567 261.03,40.567 261.03,47.986 277.25,47.986 277.25,45.244 264.023,45.244 				
					"/>
			</g>
			<g>
				<polygon fill="#DDDDDD" points="144.618,47.986 147.61,47.986 147.61,40.328 157.145,40.328 157.145,37.584 135.084,37.584 
					135.084,40.328 144.618,40.328 				"/>
				<polygon fill="#DDDDDD" points="146.112,30.489 153.664,35.327 155.574,32.979 147.608,27.966 147.608,25.969 154.683,25.969 
					154.683,23.227 137.543,23.227 137.543,25.969 144.617,25.969 144.617,27.969 136.654,32.979 138.566,35.327 				"/>
			</g>
			<g>
				<polygon fill="#DDDDDD" points="128.592,37.357 131.587,37.357 131.587,22.498 128.592,22.498 128.592,27.796 125.173,27.796 
					125.173,30.572 128.592,30.572 				"/>
				<path fill="#DDDDDD" d="M124.313,37.439c-3.346,0-6.066,2.718-6.066,6.063c0,3.345,2.721,6.063,6.066,6.063
					c3.342,0,6.064-2.719,6.064-6.063C130.377,40.158,127.654,37.439,124.313,37.439z M124.313,46.698
					c-1.762,0-3.195-1.433-3.195-3.195c0-1.761,1.434-3.194,3.195-3.194c1.758,0,3.193,1.433,3.193,3.194
					C127.506,45.266,126.07,46.698,124.313,46.698z"/>
				<polygon fill="#DDDDDD" points="123.866,34.483 118.368,28.396 118.368,26.819 123.138,26.819 123.138,24.08 118.368,24.08 
					118.368,21.469 115.378,21.469 115.378,24.08 110.604,24.08 110.604,26.819 115.378,26.819 115.378,28.47 109.988,34.442 
					112.211,36.446 116.87,31.285 121.57,36.408 				"/>
			</g>
			<g>
				<rect x="177.472" y="22.518" fill="#DDDDDD" width="2.995" height="24.302"/>
				<polygon fill="#DDDDDD" points="168.328,23.227 165.334,23.227 165.334,27.84 158.73,38.27 161.188,39.775 166.832,30.849 
					172.472,39.775 174.932,38.27 168.328,27.821 				"/>
			</g>
			<g>
				<polygon fill="#DDDDDD" points="242.401,37.729 236.245,37.729 236.245,40.336 249.077,40.336 249.077,42.092 236.248,42.092 
					236.248,48.966 251.918,48.966 251.918,46.41 239.062,46.41 239.062,44.656 251.896,44.656 251.896,37.729 245.398,37.729 
					245.398,35.844 254.729,35.844 254.729,33.193 232.888,33.193 232.888,35.844 242.401,35.844 				"/>
				<polygon fill="#DDDDDD" points="243.896,26.021 251.907,31.496 253.688,29.293 245.394,23.62 245.394,21.469 242.401,21.469 
					242.401,23.62 234.109,29.293 235.891,31.496 				"/>
			</g>
		</g>
		<g>
			<g>
				<path fill="#DDDDDD" d="M113.813,70.086c-0.792,0-1.472-0.291-1.995-0.813c-0.747-0.749-0.735-1.589-0.735-3.053
					c0-1.461-0.012-2.304,0.735-3.05c0.523-0.523,1.203-0.812,1.995-0.812c1.396,0,2.442,0.822,2.708,2.336h-1.172
					c-0.182-0.768-0.693-1.3-1.536-1.3c-0.448,0-0.854,0.169-1.122,0.458c-0.372,0.406-0.457,0.842-0.457,2.367
					s0.085,1.963,0.457,2.369c0.269,0.287,0.674,0.459,1.122,0.459c0.843,0,1.365-0.533,1.547-1.303h1.161
					C116.266,69.262,115.188,70.086,113.813,70.086z"/>
				<path fill="#DDDDDD" d="M122.29,70.02V66.7h-3.084v3.319h-1.151v-7.598h1.151v3.244h3.084v-3.244h1.15v7.598H122.29z"/>
				<path fill="#DDDDDD" d="M125.423,70.02v-7.598h4.854v1.037h-3.701v2.219h3.156V66.7h-3.156v2.285h3.701v1.034H125.423z"/>
				<path fill="#DDDDDD" d="M136.313,69.273c-0.523,0.521-1.195,0.813-2.006,0.813s-1.473-0.291-1.995-0.813
					c-0.747-0.749-0.735-1.589-0.735-3.053c0-1.461-0.012-2.304,0.735-3.05c0.522-0.523,1.185-0.812,1.995-0.812
					s1.482,0.288,2.006,0.812c0.746,0.746,0.725,1.589,0.725,3.05C137.037,67.685,137.059,68.524,136.313,69.273z M135.438,63.863
					c-0.268-0.287-0.684-0.468-1.132-0.468c-0.447,0-0.864,0.181-1.132,0.468c-0.372,0.405-0.446,0.832-0.446,2.357
					s0.074,1.952,0.446,2.359c0.268,0.285,0.685,0.469,1.132,0.469c0.448,0,0.864-0.184,1.132-0.469
					c0.372-0.407,0.447-0.834,0.447-2.359S135.811,64.269,135.438,63.863z"/>
				<path fill="#DDDDDD" d="M143.402,70.02l-3.51-5.344v5.344h-1.152v-7.598h1.057l3.51,5.335v-5.335h1.152v7.598H143.402z"/>
				<path fill="#DDDDDD" d="M150.985,69.221c-0.578,0.607-1.292,0.865-2.091,0.865c-0.791,0-1.473-0.291-1.996-0.813
					c-0.746-0.749-0.736-1.589-0.736-3.053c0-1.461-0.01-2.304,0.736-3.05c0.523-0.523,1.184-0.812,1.996-0.812
					c1.608,0,2.549,1.056,2.763,2.356h-1.163c-0.192-0.832-0.748-1.32-1.6-1.32c-0.449,0-0.854,0.181-1.122,0.468
					c-0.372,0.405-0.457,0.832-0.457,2.357s0.085,1.963,0.457,2.369c0.269,0.287,0.673,0.459,1.122,0.459
					c0.501,0,0.938-0.191,1.236-0.533c0.276-0.321,0.385-0.706,0.385-1.194v-0.427h-1.621v-0.981h2.774v1.161
					C151.669,68.057,151.487,68.686,150.985,69.221z"/>
				<path fill="#DDDDDD" d="M153.979,70.086c-0.781,0-1.324-0.217-1.847-0.737l0.769-0.759c0.266,0.268,0.521,0.459,1.078,0.459
					c0.852,0,1.376-0.524,1.376-1.516v-5.111h1.151v5.197C156.506,69.198,155.374,70.086,153.979,70.086z"/>
				<path fill="#DDDDDD" d="M160.983,70.086c-1.547,0-2.721-1.059-2.721-2.627v-5.037h1.152v4.985c0,1.013,0.619,1.642,1.568,1.642
					c0.95,0,1.579-0.629,1.579-1.642v-4.985h1.152v5.037C163.715,69.027,162.531,70.086,160.983,70.086z"/>
			</g>
			<g>
				<g>
					<path fill="#DDDDDD" d="M116.906,83.221v-5.077l-1.751,3.702h-0.854l-1.792-3.702v5.077h-1.151v-7.596h1.151l2.221,4.727
						l2.176-4.727h1.152v7.596H116.906z"/>
					<path fill="#DDDDDD" d="M122.631,83.285c-1.548,0-2.724-1.057-2.724-2.625v-5.035h1.155v4.981c0,1.015,0.618,1.644,1.568,1.644
						c0.949,0,1.578-0.629,1.578-1.644v-4.981h1.152v5.035C125.361,82.229,124.177,83.285,122.631,83.285z"/>
					<path fill="#DDDDDD" d="M129.241,83.285c-1.142,0-1.964-0.268-2.688-1.002l0.768-0.76c0.554,0.557,1.162,0.727,1.942,0.727
						c0.991,0,1.568-0.424,1.568-1.161c0-0.33-0.096-0.607-0.3-0.791c-0.192-0.18-0.385-0.255-0.832-0.319l-0.896-0.129
						c-0.618-0.084-1.11-0.3-1.44-0.607c-0.373-0.353-0.555-0.832-0.555-1.453c0-1.32,0.96-2.229,2.54-2.229
						c1.001,0,1.705,0.258,2.357,0.865l-0.737,0.724c-0.469-0.447-1.013-0.585-1.653-0.585c-0.896,0-1.387,0.512-1.387,1.184
						c0,0.277,0.085,0.523,0.289,0.703c0.191,0.173,0.5,0.301,0.853,0.353l0.863,0.13c0.705,0.105,1.1,0.277,1.418,0.563
						c0.418,0.363,0.62,0.907,0.62,1.559C131.972,82.453,130.831,83.285,129.241,83.285z"/>
					<path fill="#DDDDDD" d="M133.517,83.221v-7.596h4.854v1.035h-3.702v2.219h3.158v1.025h-3.158v2.283h3.702v1.033H133.517z"/>
					<path fill="#DDDDDD" d="M142.549,83.285c-1.547,0-2.721-1.057-2.721-2.625v-5.035h1.153v4.981c0,1.015,0.619,1.644,1.567,1.644
						c0.95,0,1.579-0.629,1.579-1.644v-4.981h1.152v5.035C145.28,82.229,144.096,83.285,142.549,83.285z"/>
					<path fill="#DDDDDD" d="M152.69,83.221v-5.077l-1.75,3.702h-0.854l-1.79-3.702v5.077h-1.152v-7.596h1.152l2.219,4.727
						l2.175-4.727h1.153v7.596H152.69z"/>
				</g>
				<g>
					<path fill="#DDDDDD" d="M162.831,82.475c-0.523,0.521-1.194,0.811-2.006,0.811s-1.473-0.289-1.994-0.811
						c-0.749-0.746-0.736-1.592-0.736-3.05c0-1.464-0.013-2.307,0.736-3.053c0.521-0.523,1.183-0.812,1.994-0.812
						s1.482,0.288,2.006,0.812c0.746,0.746,0.725,1.589,0.725,3.053C163.556,80.883,163.577,81.729,162.831,82.475z M161.956,77.065
						c-0.268-0.288-0.684-0.471-1.131-0.471c-0.448,0-0.865,0.183-1.131,0.471c-0.374,0.405-0.448,0.833-0.448,2.359
						c0,1.524,0.074,1.952,0.448,2.357c0.266,0.287,0.683,0.468,1.131,0.468c0.447,0,0.863-0.181,1.131-0.468
						c0.374-0.405,0.447-0.833,0.447-2.357C162.403,77.898,162.33,77.471,161.956,77.065z"/>
					<path fill="#DDDDDD" d="M166.412,76.66v2.316h3.156v1.033h-3.156v3.211h-1.152v-7.596h4.853v1.035H166.412z"/>
				</g>
				<g>
					<path fill="#DDDDDD" d="M178.421,83.221l-0.523-1.525H174.9l-0.523,1.525h-1.227l2.785-7.596h0.928l2.783,7.596H178.421z
						 M176.426,77.343l-1.184,3.372h2.335L176.426,77.343z"/>
					<path fill="#DDDDDD" d="M184.914,83.221l-1.601-3.199h-1.44v3.199h-1.153v-7.596h2.945c1.441,0,2.357,0.931,2.357,2.22
						c0,1.089-0.66,1.782-1.516,2.016l1.751,3.36H184.914z M183.581,76.66h-1.708v2.379h1.708c0.768,0,1.289-0.438,1.289-1.184
						S184.349,76.66,183.581,76.66z"/>
					<path fill="#DDDDDD" d="M190.275,76.66v6.561h-1.153V76.66h-2.089v-1.035h5.334v1.035H190.275z"/>
				</g>
			</g>
		</g>
	</g>
	<path fill="#DDDDDD" d="M80.962,61.592c-4.174,0-8.075,1.87-10.669,5.089c-3.945,4.593-9.664,7.229-15.684,7.229
		c-11.401,0-20.678-9.275-20.678-20.677s9.276-20.678,20.678-20.678c6.029,0,11.752,2.641,15.699,7.242
		c2.521,3.095,6.357,5.077,10.653,5.077c7.579,0,13.74-6.164,13.74-13.742c0-3.407-1.252-6.523-3.312-8.926
		C82.211,11.335,68.813,5.102,54.609,5.102c-26.541,0-48.134,21.591-48.134,48.131c0,26.54,21.593,48.132,48.134,48.132
		c13.951,0,27.211-6.068,36.33-16.598c2.429-2.568,3.763-5.917,3.763-9.432C94.702,67.757,88.541,61.592,80.962,61.592z
		 M80.962,41.932c-5.955,0-10.799-4.845-10.799-10.8c0-5.956,4.844-10.799,10.799-10.799c5.954,0,10.795,4.843,10.795,10.799
		C91.757,37.087,86.916,41.932,80.962,41.932z M88.758,82.792c-8.603,9.934-21.052,15.629-34.148,15.629
		c-24.916,0-45.188-20.271-45.188-45.188c0-24.915,20.272-45.188,45.188-45.188c10.086,0,19.73,3.36,27.563,9.405
		c-0.398-0.033-0.802-0.061-1.211-0.061c-7.577,0-13.743,6.166-13.743,13.743c0,0.785,0.08,1.551,0.207,2.302
		c-3.783-2.456-8.217-3.82-12.816-3.82c-13.027,0-23.622,10.596-23.622,23.619s10.595,23.62,23.622,23.62
		c6.881,0,13.41-3.007,17.943-8.288c2.066-2.56,5.131-4.029,8.409-4.029c5.954,0,10.795,4.844,10.795,10.801
		C91.757,78.094,90.708,80.726,88.758,82.792z"/>
</g>
</svg>
