<?xml version="1.0" encoding="utf-8"?>
<!-- Generator: Adobe Illustrator 16.0.0, SVG Export Plug-In . SVG Version: 6.00 Build 0)  -->
<!DOCTYPE svg PUBLIC "-//W3C//DTD SVG 1.1//EN" "http://www.w3.org/Graphics/SVG/1.1/DTD/svg11.dtd">
<svg version="1.1" id="Layer_1" xmlns="http://www.w3.org/2000/svg" xmlns:xlink="http://www.w3.org/1999/xlink" x="0px" y="0px"
	 width="252px" height="298px" viewBox="0 0 252 298" enable-background="new 0 0 252 298" xml:space="preserve">
<g>
	<polygon fill="#916240" points="8.689,0.28 231.42,28.121 247.37,298.121 15.07,290.496 0.87,4.457 	"/>
	<polygon fill="#FFFFFF" points="16.811,11.3 225.909,35.661 239.686,290.146 31.31,285.426 	"/>
	<g>
		<path fill="#E9BD93" d="M129.191,69.626c0,0,3.553-9.571,0-13.921c-3.554-4.35-7.032,1.741-7.613,4.061
			c-0.58,2.32,0.009,8.411,3.484,12.181c0,0-0.285,41.182,0,42.342c0.286,1.16,5.04,1.74,5.708,0
			C131.438,112.549,129.554,76.006,129.191,69.626z"/>
		<path fill="#E9BD93" d="M152.03,81.807c0,0-2.901-7.83,3.189-11.6c6.09-3.77,8.41-1.16,7.54,2.61
			c-0.87,3.77-3.994,8.852-5.622,11.966s-12.357,34.727-13.809,35.597c-1.45,0.87-4.93-0.291-4.93-3.191
			C138.399,114.289,148.84,93.407,152.03,81.807z"/>
		<path fill="#E9BD93" d="M178.131,100.658c0,0,4.351-2.716,5.51-6.143c1.16-3.428-0.578-5.748-2.754-5.748
			s-6.526,3.666-7.396,5.748s-1.16,5.273-1.16,6.143c0,0.87-20.704,25.812-21.662,27.841c-0.959,2.03,2.522,5.8,3.972,4.93
			C156.09,132.559,174.773,103.459,178.131,100.658z"/>
		<path fill="#E9BD93" d="M157.54,140.68c0,0,2.61,5.511,4.061,5.221c1.449-0.289,27.262-13.052,28.711-14.212
			c1.449-1.159,6.091-0.289,8.7-1.449c2.61-1.161,5.22-7.54,1.45-7.54c-3.771,0-6.091-1.451-13.921,5.8
			C178.711,135.75,159.86,136.911,157.54,140.68z"/>
		<path fill="#E9BD93" d="M119.839,115.387c-0.87,1.801-4.352,3.832-5.512,3.542c-1.159-0.289-11.02-30.162-12.76-35.671
			c-1.74-5.51-6.381-12.086-8.121-14.888c-1.739-2.802-0.87-10.053,2.32-10.053s5.222,8.99,4.931,11.89
			c-0.29,2.9,7.831,21.751,9.86,26.682C112.588,101.818,119.839,115.387,119.839,115.387z"/>
		<path fill="#E9BD93" d="M76.336,86.157c0,0-3.48-6.67-6.38-6.09c-2.9,0.58-5.8,6.09-3.48,8.7c2.32,2.61,6.09,3.48,7.541,3.48
			s13.05,13.05,14.791,14.791s15.361,19.43,17.396,19.142c2.035-0.291,4.355-1.397,4.355-3.6c0-2.201-27.552-28.303-29.581-30.043
			C78.947,90.797,77.893,88.672,76.336,86.157z"/>
		<path fill="#E9BD93" d="M59.806,113.708c0,0-2.901-3.769-5.8-3.769c-2.9,0-3.77,9.846,0,10.723c3.77,0.877,5.799,1.152,8.12,0
			c2.321-1.152,35.093,17.118,36.832,16.829c1.74-0.29,4.351-5.801,2.61-6.381C99.827,130.53,62.996,113.708,59.806,113.708z"/>
		<path fill="#E9BD93" d="M58.065,143.932c-1.74,0.519-8.12-0.063-8.7,3.564c-0.58,3.625,0.87,7.105,4.35,7.105
			c3.48,0,5.8-3.189,8.41-4.061c2.61-0.87,33.932,4.641,36.252,4.061s2.319-3.916,1.16-5.583c-1.16-1.669-35.961-2.516-37.121-3.106
			C61.255,145.321,58.065,143.932,58.065,143.932z"/>
		<path fill="#E9BD93" d="M102.141,164.75c0,0,1.746,4.063,1.746,4.932c0,0.871-30.451,12.182-34.801,14.5
			c-4.35,2.32-6.38,4.639-8.12,5.801c-1.74,1.16-5.957-0.58-4.863-4.639c1.094-4.063,7.763-4.932,11.244-5.803
			C70.826,178.672,98.944,164.172,102.141,164.75z"/>
		<path fill="#E9BD93" d="M110.558,177.535c1.283-0.729,4.641,4.328,3.19,6.068s-21.435,20.299-25.653,23.49
			c-4.219,3.189-2.188,3.189-4.798,7.25c-2.61,4.061-7.193,5.51-8.527,1.16s2.438-7.83,6.787-11.311
			S105.918,180.168,110.558,177.535z"/>
		<path fill="#E9BD93" d="M121.383,187.953c0,0,4.555,1.74,3.68,3.48c-0.874,1.74-14.505,36.83-14.505,39.439
			c0,2.611,1.739,4.641,2.03,6.672c0.29,2.029-2.33,8.699-6.386,8.99c-4.055,0.289-8.56-7.832-5.362-11.6
			c3.196-3.771,7.397-13.014,9.718-18.852C112.878,210.244,117.707,200.133,121.383,187.953z"/>
		<path fill="#E9BD93" d="M130.913,193.826c0.652-1.18,4.876-1.305,6.181,0c1.306,1.305,3.045,41.762,3.045,45.459
			s3.698,6.961,2.828,10.223c-0.87,3.264-3.657,5.873-5.961,5.438c-2.305-0.434-5.567-5.654-3.609-11.311
			c1.957-5.654,1.087-9.57,0.435-16.313S128.864,197.523,130.913,193.826z"/>
		<path fill="#E9BD93" d="M146.012,192.893c0.53,1.211,11.528,28.773,11.528,34.865c0,6.09-0.218,8.266,1.087,10.223
			c1.306,1.957,7.255,3.045,8.63,0c1.376-3.045-3.491-6.742-4.32-8.701c-0.829-1.957-1.264-3.914-2.352-7.395
			s-8.418-30.688-10.082-31.549C148.84,189.475,145.459,191.631,146.012,192.893z"/>
		<path fill="#E9BD93" d="M151.885,187.953c-0.09,0.893,20.011,16.531,22.621,21.098c2.609,4.568,3.045,9.721,7.612,9.102
			c4.568-0.617,5.655-4.969,3.263-7.361s-5.438-5.221-7.83-5.873s-18.376-20.881-20.825-21.314
			C154.277,183.168,152.296,183.863,151.885,187.953z"/>
		<path fill="#E9BD93" d="M161.02,152.281c0,0-1.739,3.264,0,4.785c1.74,1.523,20.446,2.176,24.361,2.609
			c3.915,0.436,12.833,4.461,14.573,5.059s6.308,0.162,6.743-3.752c0.435-3.916,1.957-6.744-1.958-7.396s-11.093,1.248-14.573,1.059
			C186.687,154.457,165.805,150.324,161.02,152.281z"/>
		<path fill="#E9BD93" d="M161.237,170.986c1.522-1.305,19.576,6.961,24.361,8.701s8.918-0.869,11.528,0
			c2.609,0.869,3.915,6.309,3.479,8.266c-0.435,1.957-4.567,7.053-6.308,4.939c-1.74-2.111-5.58-5.592-7.684-6.68
			c-2.104-1.088-24.531-10.441-26.368-10.658S159.715,172.293,161.237,170.986z"/>
	</g>
	<line fill="none" x1="246.992" y1="115.2" x2="252.492" y2="115.42"/>
</g>
</svg>
