<?xml version="1.0" encoding="utf-8"?>
<!-- Generator: Adobe Illustrator 16.0.0, SVG Export Plug-In . SVG Version: 6.00 Build 0)  -->
<!DOCTYPE svg PUBLIC "-//W3C//DTD SVG 1.1//EN" "http://www.w3.org/Graphics/SVG/1.1/DTD/svg11.dtd">
<svg version="1.1" id="Layer_1" xmlns="http://www.w3.org/2000/svg" xmlns:xlink="http://www.w3.org/1999/xlink" x="0px" y="0px"
	 width="573px" height="329px" viewBox="0 0 573 329" enable-background="new 0 0 573 329" xml:space="preserve">
<g>
	<path fill="#EAE6E4" d="M67.986,128l-5.446,13.405h-2.932L32.8,169.47c0,0-22.201,36.024-23.876,43.146
		c-1.676,7.121-11.311,47.335-5.027,60.319c6.283,12.986,11.24,55.714,11.24,55.714h174.677l146.333,0.051
		c0,0,6.123-24.457,5.955-62.717c-0.133-30.232-16.08-34.099-16.08-34.099l-41.887,10.892l-41.471-6.284
		c0,0-23.458-20.524-27.228-21.781s-17.174-27.229-23.876-31.836c-6.703-4.607-26.25-17.872-49.708-19.548
		c-6.08-0.435-17.733-14.521-22.76-21.643C114.064,134.562,83.904,128.418,67.986,128z"/>
	<path fill="#E9BD93" d="M148.668,22.439c0,0,17.342,13.873,18.595,29.323c0.628,7.75,3.341,50.775,2.723,56.55
		c-0.857,8.006-6.683,38.683-16.729,40.213c-24.146,3.681-25.115-3.351-23.44,5.865c1.676,9.215,12.148,28.903,10.891,36.862
		c-1.256,7.96-70.208-42.2-74.622-57.528c-4.304-14.941-0.359-20.825-3.71-26.47c-3.351-5.645-38.957-55.074,2.514-88.585
		C106.359-14.842,139.452,14.061,148.668,22.439z"/>
	<path fill="none" stroke="#A8A7A7" stroke-miterlimit="10" d="M77.342,157.741c0,0-5.585,6.145-6.703,8.098
		c-1.117,1.955-10.333,10.054-14.521,11.729c-4.189,1.676-10.612,12.007-10.612,12.007s-2.513,26.811-2.513,28.485"/>
	<path fill="none" stroke="#A8A7A7" stroke-miterlimit="10" d="M34.336,218.061c0,0,18.71,8.1,32.115,9.774
		c13.404,1.675,29.601,7.261,30.997,8.379c1.397,1.116-0.838-7.263-8.937-13.127"/>
	<path fill="none" stroke="#A8A7A7" stroke-miterlimit="10" d="M77.342,194.324c0,0,11.17,1.117,34.349,63.393
		c0,0,18.431,11.45,21.224,23.458"/>
	<path fill="none" stroke="#A8A7A7" stroke-miterlimit="10" d="M103.592,277.543c0,0,23.458,10.333,48.312,1.118
		c24.854-9.217,35.626-17.98,37.246-18.92"/>
	<path fill="none" stroke="#A8A7A7" stroke-miterlimit="10" d="M62.541,144.336c0,0-6.782-0.105,13.226,15.167"/>
	<path fill="none" stroke="#A8A7A7" stroke-miterlimit="10" d="M80.972,159.504c0,0,53.897,43.477,61.158,49.063"/>
	<path fill="none" stroke="#A8A7A7" stroke-miterlimit="10" d="M142.13,192.071c0,0,4.189,2.254,3.351,8.677
		c-0.838,6.422-2.962,7.539-1.62,11.448c1.341,3.91,5.25,8.657,5.809,12.288c0.559,3.63,5.139,18.063,11.17,27.926
		c2.174,3.555,2.899,18.833,3.544,21.006"/>
	<path fill="none" stroke="#A8A7A7" stroke-miterlimit="10" d="M145.585,212.405c0,0,0.838,1.991,3.247,1.152
		c2.408-0.837,1.675-4.118,0.942-4.991s-3.875-0.769-4.189,0.593C145.271,210.521,145.015,211.643,145.585,212.405z"/>
	<path fill="none" stroke="#A8A7A7" stroke-miterlimit="10" d="M138.151,163.186c0,0,9.843,10.054,20.106,64.928"/>
	<path fill="none" stroke="#A8A7A7" stroke-miterlimit="10" d="M175.641,180.36c0,0,16.965,16.338,23.039,71.63"/>
	<path fill="none" stroke="#A8A7A7" stroke-miterlimit="10" d="M202.869,205.913c0,0,2.273,7.243,1.385,14.032
		c-0.865,6.613,0.411,12.001,1.039,19.541s0.508,10.829,0.508,10.829"/>
	<path fill="none" stroke="#A8A7A7" stroke-miterlimit="10" d="M299.422,240.682c0,0-1.256,1.884,0,6.282
		c1.258,4.398,10.684,30.998,10.684,30.998"/>
	<path fill="none" stroke="#A8A7A7" stroke-miterlimit="10" d="M47.227,227.188c0,0,6.098,12.445,10.287,20.405
		c4.189,7.959,7.54,18.763,10.053,25.823c2.513,7.059,5.865,12.296,5.865,12.296s21.224,34.562,38.119,38.748"/>
	<path fill="none" stroke="#846951" stroke-miterlimit="10" d="M250.483,189.298c0,0,9.775-5.307,24.714-5.725"/>
	<path fill="#BF915F" d="M106.385,21.742"/>
	<path fill="#BF915F" d="M106.385,21.742"/>
	<path fill="#9D9C9C" d="M108.758,40.731c0,0-5.166,41.051-10.811,40.213c-5.528-0.82-11.948-10.612-12.786-10.892
		c-0.838-0.279-6.424-9.216-12.847-3.071c-6.422,6.144-7.709,12.845-6.228,17.034c1.481,4.189,1.761,12.846,5.112,15.359
		s5.707,4.149,9.773,6.737c4.608,2.932-8.657-0.036-8.657-0.036s1.597,3.91,3.452,4.748c1.855,0.838-9.485-3.351-9.68-5.864
		c-0.194-2.514,1.48,7.819,5.391,10.332s-5.305,1.397-8.657-10.891c0,0,1.227,10.891,5.78,14.521
		c4.553,3.63-17.203-4.874-21.373-30.719C43.118,62.74,34.336,44.082,58.911,19.786c30.084-29.743,74.193-13.573,84.266-6.179
		C164.959,29.595,135.427,34.866,108.758,40.731z"/>
	<g>
		<path fill="#C6C6C5" d="M108.758,29.875c0,0,1.996-1.929,5.306-4.43c1.649-1.258,3.623-2.662,5.812-4.06
			c1.1-0.689,2.229-1.417,3.42-2.085c1.187-0.675,2.402-1.347,3.642-1.979c1.242-0.624,2.51-1.205,3.77-1.751
			c1.256-0.555,2.54-1,3.782-1.425c1.251-0.406,2.484-0.735,3.676-0.969c1.188-0.24,2.332-0.396,3.401-0.416
			c0.531-0.033,1.043-0.029,1.531,0.017c0.486,0.016,0.945,0.091,1.373,0.175c0.429,0.059,0.823,0.167,1.179,0.297
			c0.359,0.109,0.681,0.224,0.954,0.381c0.276,0.143,0.526,0.256,0.726,0.385c0.189,0.146,0.351,0.27,0.481,0.371
			c0.256,0.198,0.393,0.304,0.393,0.304s-0.157-0.074-0.451-0.212c-0.144-0.068-0.322-0.151-0.531-0.249
			c-0.218-0.076-0.479-0.139-0.758-0.226c-0.275-0.1-0.597-0.151-0.949-0.19c-0.348-0.054-0.72-0.11-1.13-0.1
			c-0.405-0.018-0.833-0.024-1.29,0.031c-0.226,0.016-0.458,0.032-0.695,0.049c-0.237,0.036-0.479,0.073-0.727,0.111
			c-0.495,0.062-1.005,0.175-1.531,0.304c-0.528,0.105-1.068,0.266-1.622,0.419c-1.108,0.316-2.254,0.743-3.439,1.178
			c-1.181,0.457-2.376,0.993-3.596,1.533c-1.215,0.551-2.438,1.14-3.645,1.767c-1.221,0.598-2.425,1.236-3.603,1.88
			c-1.177,0.648-2.335,1.287-3.456,1.905c-1.114,0.636-2.191,1.25-3.212,1.833c-1.018,0.593-1.981,1.154-2.87,1.671
			C111.135,28.483,108.758,29.875,108.758,29.875z"/>
	</g>
	<g>
		<path fill="#C6C6C5" d="M92.706,35.575c0,0,0.055-0.228,0.158-0.656c0.093-0.43,0.273-1.05,0.529-1.842
			c0.276-0.778,0.629-1.72,1.106-2.771c0.487-1.044,1.058-2.217,1.777-3.443c0.702-1.237,1.527-2.539,2.471-3.869
			c0.948-1.326,1.981-2.706,3.164-4.04c2.312-2.714,5.115-5.328,8.19-7.606c1.571-1.093,3.177-2.146,4.864-3.008
			c1.673-0.882,3.404-1.601,5.134-2.131c1.715-0.577,3.454-0.874,5.098-1.067c1.653-0.146,3.227-0.166,4.659,0.023
			c0.357,0.04,0.708,0.08,1.05,0.118c0.337,0.068,0.667,0.135,0.988,0.2c0.643,0.129,1.245,0.267,1.796,0.46
			c1.123,0.306,2.042,0.734,2.8,1.062c0.76,0.324,1.303,0.697,1.695,0.895c0.384,0.214,0.588,0.329,0.588,0.329
			s-0.221-0.08-0.635-0.231c-0.418-0.138-1.008-0.396-1.791-0.621c-0.785-0.221-1.727-0.505-2.838-0.688
			c-0.547-0.128-1.14-0.196-1.765-0.25c-0.311-0.033-0.63-0.067-0.957-0.103c-0.328-0.008-0.664-0.016-1.006-0.025
			c-1.368-0.057-2.847,0.094-4.389,0.312c-1.535,0.28-3.136,0.668-4.735,1.257c-1.614,0.545-3.2,1.329-4.785,2.165
			c-1.589,0.835-3.107,1.864-4.598,2.922c-1.48,1.079-2.915,2.227-4.255,3.443c-1.329,1.227-2.637,2.444-3.804,3.722
			c-1.182,1.261-2.281,2.526-3.282,3.76c-0.987,1.245-1.903,2.44-2.692,3.584c-0.794,1.141-1.478,2.217-2.069,3.184
			c-0.568,0.978-1.044,1.844-1.416,2.572c-0.34,0.734-0.637,1.31-0.792,1.723C92.796,35.358,92.706,35.575,92.706,35.575z"/>
	</g>
	<g>
		<path fill="#C6C6C5" d="M78.458,35.006c0,0,0.802-3.271,2.878-7.873c0.51-1.153,1.105-2.384,1.78-3.665
			c0.681-1.276,1.415-2.62,2.268-3.954c0.841-1.341,1.745-2.711,2.757-4.038c1.005-1.332,2.091-2.64,3.243-3.894
			c0.595-0.61,1.174-1.234,1.807-1.804l0.929-0.869l0.969-0.817c1.275-1.102,2.675-2.011,4.039-2.862
			c0.707-0.387,1.394-0.784,2.093-1.116c0.719-0.297,1.399-0.635,2.099-0.874c0.706-0.221,1.368-0.502,2.049-0.649
			c0.681-0.144,1.325-0.33,1.961-0.418c0.636-0.082,1.245-0.161,1.824-0.236c0.583-0.013,1.135-0.025,1.654-0.037
			c1.034-0.023,1.932,0.132,2.664,0.176c1.455,0.274,2.266,0.455,2.266,0.455s-0.833-0.021-2.291-0.058
			c-0.726,0.065-1.604,0.054-2.596,0.191c-0.493,0.072-1.018,0.149-1.572,0.231c-0.542,0.127-1.113,0.261-1.708,0.4
			c-1.175,0.33-2.418,0.767-3.69,1.328c-0.64,0.269-1.259,0.635-1.911,0.958c-0.626,0.375-1.265,0.757-1.916,1.146
			c-1.261,0.847-2.513,1.794-3.722,2.841l-0.91,0.789L94.551,11.2c-0.596,0.549-1.14,1.16-1.705,1.748
			c-1.122,1.186-2.185,2.432-3.176,3.707c-0.985,1.278-1.954,2.544-2.817,3.824c-0.871,1.274-1.693,2.524-2.445,3.729
			c-0.735,1.214-1.439,2.362-2.052,3.444C79.889,31.972,78.458,35.006,78.458,35.006z"/>
	</g>
	<g>
		<path fill="#C6C6C5" d="M61.093,41.99c0,0,0.604-3.273,2.108-8.026c0.741-2.379,1.708-5.125,2.902-8.009
			c0.607-1.437,1.224-2.93,1.95-4.404c0.705-1.482,1.473-2.966,2.273-4.435c0.818-1.459,1.7-2.885,2.602-4.27
			c0.917-1.376,1.897-2.682,2.912-3.896c0.511-0.604,1.004-1.207,1.553-1.743c0.52-0.559,1.065-1.073,1.614-1.557
			c1.071-0.991,2.213-1.794,3.308-2.456c0.545-0.333,1.116-0.582,1.633-0.845c0.538-0.229,1.076-0.387,1.561-0.563
			c1.009-0.261,1.9-0.42,2.645-0.408c0.736-0.075,1.311,0.069,1.697,0.107c0.385,0.052,0.59,0.08,0.59,0.08s-0.208,0.01-0.597,0.028
			c-0.387,0.026-0.952,0.008-1.649,0.18c-0.706,0.093-1.521,0.385-2.428,0.732c-0.437,0.226-0.913,0.431-1.384,0.705
			c-0.455,0.311-0.961,0.578-1.439,0.943c-0.959,0.725-1.947,1.573-2.903,2.574c-0.485,0.492-0.966,1.014-1.424,1.583
			c-0.476,0.549-0.94,1.133-1.399,1.737c-0.934,1.195-1.785,2.521-2.671,3.852c-0.855,1.354-1.69,2.754-2.473,4.188
			c-0.801,1.423-1.574,2.865-2.287,4.311c-0.719,1.442-1.428,2.865-2.074,4.262c-1.306,2.788-2.461,5.426-3.438,7.698
			C62.338,38.91,61.093,41.99,61.093,41.99z"/>
	</g>
	<g>
		<path fill="#C6C6C5" d="M98.748,54.286c0,0-0.346,1.513-1.195,3.644c-0.212,0.532-0.442,1.11-0.717,1.705
			c-0.275,0.595-0.545,1.234-0.883,1.865c-0.638,1.281-1.374,2.621-2.189,3.917c-0.4,0.65-0.833,1.284-1.262,1.905
			c-0.418,0.627-0.9,1.2-1.329,1.776c-0.894,1.13-1.807,2.128-2.644,2.929c-0.408,0.409-0.831,0.743-1.187,1.048
			c-0.347,0.314-0.695,0.544-0.974,0.737c-0.56,0.382-0.886,0.582-0.886,0.582s0.217-0.327,0.608-0.866
			c0.198-0.267,0.436-0.588,0.691-0.973c0.259-0.377,0.551-0.803,0.87-1.268c0.302-0.477,0.639-0.981,0.998-1.512
			c0.341-0.547,0.705-1.116,1.09-1.699c0.744-1.187,1.537-2.454,2.33-3.72c0.802-1.267,1.604-2.534,2.355-3.722
			c0.759-1.188,1.475-2.296,2.116-3.235C97.799,55.509,98.748,54.286,98.748,54.286z"/>
	</g>
	<g>
		<path fill="#C6C6C5" d="M81.491,49.817c0,0-0.351,1.582-1.158,3.833c-0.395,1.129-0.896,2.43-1.472,3.806
			c-0.301,0.682-0.567,1.408-0.921,2.106c-0.34,0.705-0.686,1.421-1.032,2.137c-0.366,0.706-0.733,1.412-1.093,2.107
			c-0.352,0.699-0.749,1.361-1.106,2.016c-0.342,0.66-0.766,1.259-1.141,1.835c-0.373,0.579-0.747,1.113-1.094,1.604
			c-1.375,1.972-2.433,3.176-2.433,3.176s0.489-1.563,1.435-3.743c0.452-1.104,1.068-2.327,1.67-3.683
			c0.31-0.674,0.6-1.385,0.948-2.081c0.338-0.7,0.682-1.411,1.026-2.123c0.735-1.4,1.469-2.8,2.158-4.112
			c0.701-1.308,1.393-2.512,2.02-3.529c0.621-1.02,1.163-1.862,1.556-2.444C81.249,50.142,81.491,49.817,81.491,49.817z"/>
	</g>
	<path fill="none" stroke="#878583" stroke-miterlimit="10" d="M158.257,79.27c0,0,0.559,11.14,6.127,15.639"/>
	<g>
		<path fill="#C6C6C5" d="M54.721,72.717c0,0,0.582,2.14,1.513,5.276c0.474,1.567,1.037,3.384,1.703,5.301
			c0.318,0.964,0.707,1.936,1.073,2.931c0.374,0.993,0.787,1.986,1.229,2.964c0.432,0.98,0.877,1.957,1.376,2.881
			c0.492,0.929,0.984,1.837,1.518,2.681c0.534,0.842,1.076,1.638,1.625,2.369c0.564,0.717,1.12,1.379,1.667,1.962
			c0.564,0.563,1.085,1.089,1.595,1.499c0.491,0.44,0.97,0.753,1.35,1.045c0.791,0.526,1.269,0.821,1.269,0.821
			s-0.132-0.04-0.38-0.115c-0.244-0.085-0.626-0.166-1.076-0.355c-0.441-0.202-1.014-0.404-1.596-0.766
			c-0.61-0.321-1.253-0.76-1.93-1.275c-0.325-0.271-0.678-0.543-1.02-0.849c-0.33-0.316-0.677-0.642-1.012-0.995
			c-0.665-0.711-1.342-1.488-1.951-2.355c-0.61-0.865-1.237-1.767-1.756-2.746c-0.545-0.965-1.037-1.975-1.506-2.994
			c-0.44-1.031-0.848-2.072-1.212-3.108c-0.372-1.034-0.666-2.075-0.941-3.08c-0.546-2.014-0.912-3.924-1.14-5.571
			C54.638,74.943,54.722,72.717,54.721,72.717z"/>
	</g>
	<g>
		<path fill="#C6C6C5" d="M51.371,84.016c0,0,0.548,1.553,1.236,3.87c0.172,0.578,0.358,1.205,0.555,1.868
			c0.187,0.664,0.42,1.354,0.608,2.079c0.207,0.72,0.449,1.456,0.655,2.212c0.233,0.747,0.44,1.518,0.699,2.267
			c0.239,0.755,0.449,1.524,0.722,2.25c0.264,0.732,0.474,1.471,0.756,2.152c0.128,0.347,0.265,0.683,0.378,1.022
			c0.137,0.326,0.271,0.645,0.402,0.955c0.25,0.633,0.526,1.202,0.792,1.728c0.247,0.543,0.518,1.003,0.775,1.408
			c0.251,0.411,0.455,0.792,0.692,1.041c0.434,0.543,0.688,0.885,0.688,0.885s-0.347-0.198-0.964-0.598
			c-0.327-0.185-0.649-0.483-1.009-0.844c-0.185-0.179-0.381-0.37-0.588-0.571c-0.198-0.208-0.364-0.456-0.561-0.7
			c-0.192-0.25-0.393-0.509-0.6-0.778c-0.201-0.273-0.36-0.579-0.551-0.883c-0.185-0.307-0.375-0.623-0.57-0.945
			c-0.178-0.328-0.332-0.677-0.504-1.025c-0.706-1.388-1.251-2.944-1.768-4.502c-0.246-0.784-0.436-1.58-0.652-2.356
			c-0.204-0.779-0.342-1.56-0.501-2.308c-0.28-1.505-0.478-2.919-0.578-4.14C51.256,85.665,51.371,84.016,51.371,84.016z"/>
	</g>
	<path fill="none" stroke="#A8A7A7" stroke-miterlimit="10" d="M288.742,320.969c0,0,9.703-5.486,21.363-23.776
		c1.871-2.939,13.682-9.597,13.682-16.018c0-1.689,2.863-7.759,2.863-7.759"/>
	<path fill="none" stroke="#A8A7A7" stroke-miterlimit="10" d="M262.84,255.481c0,0-5.096,10.291-5.655,15.758
		s-0.839,26.69-4.469,37.581"/>
	<path fill="none" stroke="#A8A7A7" stroke-miterlimit="10" d="M228.979,287.596c1.676-0.558,11.73-0.644,21.503-17.635"/>
	<path fill="none" stroke="#A8A7A7" stroke-miterlimit="10" d="M38.245,312.729c0,0-20.944-20.693-27.646-30.244"/>
	<path fill="#E9BD93" d="M369.027,207.029c0,0-10.191,9.774-11.447,10.194c-1.258,0.419-28.238,12.171-31.697,13.823
		c-2.096,0.999-2.096,2.652-2.096,7.399c0,4.749,4.189,21.085,4.889,27.927c0.697,6.842,1.814,4.468,1.814,4.468
		s24.018-18.011,29.602-19.547c5.586-1.537,8.936,1.116,14.521-0.979C380.199,248.222,371.541,212.336,369.027,207.029z"/>
	<path fill="#9B806D" d="M475.818,52.326c0,0-76.086,1.385-84.463,10.601c-8.377,9.215-21.363,44.402-24.295,69.117
		c-2.934,24.714-11.068,59.063,4.938,120.641c16.006,61.576,18.102,67.858,18.102,67.858h151.637c0,0,31.264-73.066,31.264-136.97
		c0-92.359-19.324-116.21-19.324-116.21S527.758,54.377,475.818,52.326z"/>
	<polygon fill="#BFB2A5" points="354.01,174.86 346.951,176.382 344.086,165.647 350.975,163.886 	"/>
	<path fill="#875931" d="M351.063,164.202l2.33,10.791l22.688-1.684c0,0,1.117-13.266-3.42-16.546
		C372.66,156.763,355.854,162.773,351.063,164.202z"/>
	<path fill="#BF915F" d="M212.503,196.698c0,0,83.987-16.966,96.345-19.688s23.248-8.587,25.133-9.216
		c1.887-0.628,10.98-2.388,10.98-2.388l2.549,10.854l-14.365,2.425c0,0-19.898,1.465-23.039,2.304
		c-3.143,0.838-94.67,21.572-94.67,21.572s-4.887,1.327-5.934-1.255C208.454,198.724,211.416,196.917,212.503,196.698z"/>
	<path fill="#E9BD93" d="M287.064,174.915c0,0-5.025-2.095-14.661,0c-9.633,2.095-29.112,11.729-32.463,15.29
		c-3.351,3.561-7.331,7.54-9.006,12.147c-1.718,4.725-4.817,22.022-5.655,24.835c-0.838,2.812-6.912,14.331-9.425,16.008
		c-2.513,1.675-23.527,12.565-25.692,16.126c-2.165,3.562,2.732,11.565,0,16.755c-2.646,5.027,6.853,42.707,6.364,44.803
		c-0.489,2.095,24.982-32.864,24.982-32.864s11.729-11.729,21.154-20.106c9.425-8.378,6.703-6.701,6.703-6.701
		s8.238-1.886,14.242-9.217c6.555-8.003,7.261-15.079,10.193-21.502c2.51-5.497,7.281-7.119,14.242-10.054
		c3.076-1.295,8.727,1.815,10.82-4.888c1.832-5.863,2.863-28.065-21.571-31.834C274.768,183.322,289.439,177.428,287.064,174.915z"
		/>
</g>
</svg>
