<?xml version="1.0" encoding="utf-8"?>
<!-- Generator: Adobe Illustrator 16.0.0, SVG Export Plug-In . SVG Version: 6.00 Build 0)  -->
<!DOCTYPE svg PUBLIC "-//W3C//DTD SVG 1.1//EN" "http://www.w3.org/Graphics/SVG/1.1/DTD/svg11.dtd">
<svg version="1.1" id="Layer_1" xmlns="http://www.w3.org/2000/svg" xmlns:xlink="http://www.w3.org/1999/xlink" x="0px" y="0px"
	 width="276px" height="243px" viewBox="0 0 276 243" enable-background="new 0 0 276 243" xml:space="preserve">
<g>
	<path fill="#F1CE9B" d="M174.646,138.602c0,0,6.61-2.437,12.354-5.047c5.742-2.609,15.471-7.657,21.744-7.309
		c6.274,0.348,15.672-3.481,17.499-5.743s-8.935-21.774-17.007-21.913c-8.068-0.14-23.627,1.031-25.715,7.644
		S172.383,134.62,174.646,138.602z"/>
	<path fill="#070606" d="M209.465,67.774c0,0,7.482,0.765,9.398,7.431c1.912,6.666,0.173,35.554,0,37.99
		c-0.176,2.437-20.188,4.318-28.715,3.638c-8.528-0.68-26.279-7.467-24.19-13.731c2.089-6.266,0.175-28.714,6.962-28.714
		s23.145-1.045,24.189-1.218C198.152,72.995,197.458,68.471,209.465,67.774z"/>
	<path fill="none" stroke="#FFFFFF" stroke-miterlimit="10" d="M199.879,80.217c0,0,7.135-1.827,12.529,0"/>
	<path fill="none" stroke="#FFFFFF" stroke-miterlimit="10" d="M201.793,72.299c1.658-0.922,8.142-1.94,13.902,3.815"/>
	<path fill="none" stroke="#FFFFFF" stroke-miterlimit="10" d="M196.975,88.658c0,0,11.084-0.87,14.563,0"/>
	<path fill="#F1CE9B" d="M203.314,48.321c3.941,1.971,1.785,27.632,0.914,30.068c-0.869,2.436-2.154,6.439-2.121,13.226
		c0.033,6.787-8.145,37.587-13.541,38.285c-5.395,0.696-22.797,29.933-24.189,32.021c-1.393,2.089-61.778-20.362-61.778-24.19
		c0-3.827,6.439-6.785,8.701-10.788c2.263-4.002,3.481-21.58-2.349-37.589C103.121,73.343,194.615,43.971,203.314,48.321z"/>
	<path fill="#070606" d="M172.643,92.375c0,0,15.032-18.839,14.771-8.398c-0.262,10.442-22.914,34.718-24.69,34.613
		c-1.774-0.104-15.14,2.908-16.967,2.778c-1.828-0.131-13.207-2.1-20.884-1.734c-5.481,0.261-7.775-6.903-8.935-8.624
		c-2.29-3.4-4.67-13.749-6.988-27.034C104.112,56.246,167.945,89.131,172.643,92.375z"/>
	<path fill="none" stroke="#B5956F" stroke-miterlimit="10" d="M195.223,81.261c0,0-4.449,9.016-5.09,12.138
		c-0.641,3.133,0.652,11.747,0.652,11.747"/>
	<path fill="#DEBC89" d="M149.76,0.252c0,0-15.662,3.829-24.016,7.309c-8.353,3.481-21.927,17.75-26.104,24.015
		c-4.176,6.266-9.746,27.497-7.658,32.717c2.089,5.221,10.094,14.619,13.227,22.624s20.187,13.923,33.413,14.618
		c13.225,0.695,50.814-9.747,55.687-16.011s12.529-15.28,14.271-34.613c1.739-19.335,4.522-26.295-6.266-36.041
		C191.525,5.125,180.04,4.777,176.559,1.645C173.079-1.488,155.676,0.948,149.76,0.252z"/>
	<path fill="none" stroke="#BCA68A" stroke-miterlimit="10" d="M144.712,18.612c3.663,0.119,8.354-0.261,8.614-2.35
		c0.262-2.088-0.522-5.743-4.307-5.482c-3.785,0.261-6.918,1.615-7.178,3.94C141.579,17.045,142.887,18.552,144.712,18.612z"/>
	<path fill="none" stroke="#BCA68A" stroke-miterlimit="10" d="M114.693,21.483c0,0,5.743-3.354,9.397-2.851
		c3.654,0.503,9.136,2.004,10.963-0.052"/>
	<path fill="none" stroke="#BCA68A" stroke-miterlimit="10" d="M139.752,21.483c0,0-13.051,10.964-14.879,14.096
		c0,0,2.088-2.35,6.004-3.916"/>
	<path fill="#F1CE9B" d="M208.059,78.563c0,0-2.089,2.435-1.914,7.482c0.172,5.047,3.498,13.465,4.099,15.522
		c0.599,2.055-1.055,5.188-2.057,7.276c-0.999,2.088,1.108,10.266,2.057,12.181c0.948,1.916,6.517,11.834,7.733,13.749
		c1.219,1.914,4.002,25.756,4.873,35.501s4.004,36.021,4.004,37.937s37.762-0.869,37.762-0.869s-6.611-18.446-10.615-26.974
		c-4.003-8.528-16.01-40.896-17.403-45.942c-1.391-5.047,0.524-19.666,1.741-25.408c1.219-5.743,0.522-16.011-3.829-21.927
		c-4.351-5.916-10.615-10.79-14.618-10.963C215.89,75.954,209.309,76.091,208.059,78.563z"/>
	<path fill="none" stroke="#BCA68A" stroke-miterlimit="10" d="M159.852,21.483c0,0,15.663,4.438,18.012,5.743
		c0,0-1.826-0.522-5.221,0"/>
	<path fill="none" stroke="#BCA68A" stroke-miterlimit="10" d="M159.852,10.767c0,0,2.611-4.946,5.744-6.512"/>
	<path fill="#070606" d="M218.783,83.987c0,0,2.923,0.953,5.616,3.453c1.806,1.675,4.372,7.896,4.372,14.128
		c0,6.231-2.698,13.367-3.395,19.109c-0.234,1.933,3.745,3.451,3.049,6.583c-0.696,3.132-0.002,4.207-5.05,9.428
		c-5.046,5.22-3.062,15.837-2.923,19.316s5.012,57.428,5.012,67.869l-12.354,0.697c0,0-0.68-25.931-2.169-37.242
		c-1.486-11.312,5.475-28.118,6.169-34.979c1.218-12.008,9.571-23.842,9.31-25.93c-0.272-2.186-3.695-4.661-3.566-5.656
		c0.695-5.395,3.309-12.789,0.176-23.404c-3.133-10.616-4.509-8.131-5.221-10.094C216.481,83.611,218.783,83.987,218.783,83.987z"/>
	<path fill="#F0EEEE" d="M113.014,118.688c0,0-3.628-2.361-8.675-2.361s-6.09,2.784-6.438,2.958
		c-0.349,0.174-5.396-2.99-16.359-1.583c-10.963,1.408-22.274,9.762-28.887,16.374c-6.614,6.613-23.494,29.758-27.321,32.717
		c-3.83,2.959-4.874,10.441-9.573,13.748s-11.485,11.66-10.441,15.837s2.436,12.878,1.566,14.966
		c-0.87,2.088-8.354,24.538-5.047,28.889c3.307,4.35,274.435,0,274.435,0s-4.263-31.412-17.49-50.902c0,0-26.361-0.087-31.409,6.353
		c-1.954,2.494-4.222,19.62-4.222,19.62s-16.138-2.471-19.577-2.871c-11.767-1.369-13.007-5.57-14.749-6.266
		c-1.74-0.695-2.174-15.529-5.481-22.316c-3.306-6.787-14.792-20.438-20.185-21.791c-5.396-1.355-30.717-10.057-34.35-11.619
		c-3.197-1.377-18.125-10.25-21.347-14.901C103.86,130.336,114.04,131.379,113.014,118.688z"/>
	<path fill="#070606" d="M181.397,136.512c0,0,5.342,8.182,9.519,12.879c4.176,4.699,16.969,9.441,27.584,19.535
		s29.582,25.234,32.193,30.281c2.61,5.046,25.234,24.277,25.581,40.983h-9.789c0,0-10.049-17.187-20.36-26.323
		c-8.7-7.709-16.651-17.521-22.058-21.535c-21.274-15.793-24.711-30.715-30.28-36.457c-5.568-5.743-9.346-15.114-13.523-17.9"/>
	<path fill="none" stroke="#B5956F" stroke-miterlimit="10" d="M212.408,77.868c2.088,0.871,5.466,6.96,7.344,16.707
		c0,0,1.01,1.742,1.705,2.437"/>
	<path fill="none" stroke="#CECCCC" stroke-miterlimit="10" d="M94.071,122.416c-1.914,2.089-10.267,11.138-9.223,21.406
		c1.044,10.268,13.574,20.36,22.797,24.711c9.224,4.352,25.408,13.748,29.584,15.141c4.177,1.392,17.924,3.133,26.974,8.354
		c9.049,5.221,7.309,5.742,10.441,6.786"/>
	<path fill="#55362A" d="M88.851,124.854c0,0-7.832,3.83-9.745,5.743c-1.914,1.913-16.532,16.358-18.795,20.187
		c-2.263,3.828-11.138,17.793-15.662,37.764c-3.955,17.457-9.049,34.108-12.53,53.618H19.763c0,0,11.833-49.441,14.444-56.968
		c4.025-11.605,10.964-25.866,14.271-30.924c3.306-5.057,14.967-17.936,19.316-20.371S77.191,127.117,88.851,124.854z"/>
	<path fill="#55362A" d="M171.164,200.033c0,0-7.309,5.567-9.746,7.134c-2.436,1.566-12.181,10.269-14.269,10.616
		c-2.089,0.348-22.101,9.396-24.016,10.789c-1.915,1.392-12.53,9.262-14.444,13.593H67.62c0,0,18.098-10.983,21.231-13.768
		c3.132-2.783,22.102-13.747,25.408-14.966c3.305-1.219,24.711-11.833,27.669-13.398c2.961-1.566,12.706-2.09,14.619-1.916
		c1.914,0.174,3.132-0.869,3.654-0.869C160.723,197.248,169.425,200.033,171.164,200.033z"/>
	<path fill="none" stroke="#CECCCC" stroke-miterlimit="10" d="M174.646,200.729c1.043,0,4.871-1.044,8.004,1.045
		c3.132,2.088,8.059,8.527,10.121,9.049c2.06,0.522,5.682,0.785,7.413,1.085"/>
	<path fill="none" stroke="#CECCCC" stroke-miterlimit="10" d="M103.729,124.854c0,0,0.151,6.143,1.566,7.57"/>
	<path fill="none" stroke="#CECCCC" stroke-miterlimit="10" d="M15.499,183.51c0,0-6.526,14.957-7.048,23.832"/>
	<path fill="none" stroke="#B5956F" stroke-miterlimit="10" d="M195.809,117.702c0,0-3.49,9.675-5.366,10.937
		s-3.118,0.44-7.269,5.717"/>
	<path fill="none" stroke="#B5956F" stroke-miterlimit="10" d="M209.127,117.702c0,0,1.193,3.595,3.281,7.33"/>
</g>
</svg>
