<?xml version="1.0" encoding="utf-8"?>
<!-- Generator: Adobe Illustrator 16.0.0, SVG Export Plug-In . SVG Version: 6.00 Build 0)  -->
<!DOCTYPE svg PUBLIC "-//W3C//DTD SVG 1.1//EN" "http://www.w3.org/Graphics/SVG/1.1/DTD/svg11.dtd">
<svg version="1.1" id="Layer_1" xmlns="http://www.w3.org/2000/svg" xmlns:xlink="http://www.w3.org/1999/xlink" x="0px" y="0px"
	 width="453px" height="500px" viewBox="0 0 453 500" enable-background="new 0 0 453 500" xml:space="preserve">
<g>
	<g>
		<path fill="#6B5838" d="M211.467,202.141c0,0-2.105,16.008-3.64,24.168c-1.535,8.16,1.594,30.246,1.821,42.689
			c0.228,12.441,77.682,15.727,77.682,15.727l-7.593-97.229L211.467,202.141z"/>
		<path fill="#E5E5E5" d="M243.85,74.104c0,0-9.711,2.123-13.348,3.98c-3.637,1.858-14.517,5.573-18.763,6.899
			c-4.247,1.326-11.412,8.757-11.942,11.412s-1.594,36.092-1.062,38.48c0.531,2.389,13.534,5.307,15.922,10.616
			c2.389,5.309,1.595,17.249-0.264,22.292s-8.493,28.758-8.228,32.557s0.796,5.955,0.796,5.955s38.744,0.068,54.138-0.777
			c15.391-0.848,38.491-14.711,38.491-14.711s1.848-43.458,3.968-52.746c2.124-9.288,5.309-11.112,4.777-13.517
			c-0.532-2.404,0.042-21.777-3.693-33.719c-3.736-11.942-11.282-8.757-16.932-9.554c-5.647-0.796-14.703-7.165-20.659-7.165
			C261.097,74.106,251.03,72.298,243.85,74.104z"/>
		<path fill="#E9D0B2" d="M234.055,33.502c0,0-3.264,3.45-1.367,7.431c1.899,3.98,5.082,4.247,5.082,4.247s2.652,13.004,3.185,13.8
			c0.531,0.796,1.328,13.8-2.919,17.249c-4.246,3.449,5.571,5.042,11.676,5.042c6.105,0,17.516-3.98,17.516-5.307
			c0-1.327-2.123-16.453-1.326-18.577c0.796-2.124,1.85-9.023,4.905-10.083c3.056-1.061,7.302-5.839,7.036-8.228
			c-0.266-2.388-5.573-0.796-5.573-0.796s2.116-18.577-1.463-21.496c-3.579-2.918-16.582-10.084-22.154-7.431
			C243.078,12.006,232.993,26.337,234.055,33.502z"/>
		<path fill="#F0DAB9" d="M294.55,118.422c0,0,11.133-1.33,13.257,8.624c2.121,9.953-7.433,19.772-9.289,19.507
			c-1.859-0.266-23.43,4.245-35.333,1.326c-11.902-2.918-23.58-10.626-27.561-11.548c-3.981-0.922-7.166,0-7.166,0
			s7.43-5.966,13.535-5.966c6.102,0,37.022,3.727,38.944,1.066C282.859,128.77,292.177,120.544,294.55,118.422z"/>
		<path fill="#F0DAB9" d="M201.92,131.43c0,0-0.713,7.425,2.96,14.856c3.673,7.431,5.294,13.333,8.186,13.269
			s35.029,2.639,51.747-3.457c16.719-6.096,24.36-27.858,25.316-29.715c0.956-1.857,4.912-9.023,1.342-13.004
			c-3.57-3.98-9.271,6.369-10.533,8.492s-24.882,11.931-30.188,14.458c-5.309,2.527-24.416-1.323-25.742-2.715
			c-1.327-1.392-5.308-7.232-5.308-7.232S200.062,125.333,201.92,131.43z"/>
		<path fill="#494746" d="M257.749,12.04c0,0-0.398-4.578-2.29-4.578s-3.583,5.971-3.583,7.762c0,1.792-2.588,7.066-14.132,15.326
			c-1.592,1.14-1.791,5.673-1.791,5.673s-4.658-5.382-3.859-14.431c0.517-5.844,4.55-15.542,9.433-18.51
			c12.44-7.563,17.616,0,18.81,2.29c0,0,5.077-2.189,8.859,0.896c3.781,3.086,8.659,5.076,9.354,12.938
			c0.93,10.545-7.665,21.296-7.763,21.596c-0.1,0.299,0.597-10.549-0.897-12.141s-6.369-0.199-7.364-4.877
			s-1.892-12.838-2.587-13.635C259.243,9.553,257.847,11.044,257.749,12.04z"/>
		<path fill="none" stroke="#E3C497" stroke-miterlimit="10" d="M273.57,148.41c0,0-9.155,1.327-15.789-0.796
			c-6.633-2.123-22.051-9.681-25.688-10.482"/>
		<path fill="none" stroke="#E3C497" stroke-miterlimit="10" d="M263.619,132.222c0.665,0,17.782,0,21.097-2.654
			c3.318-2.654,7.303-7.345,7.303-7.345"/>
	</g>
	<g>
		<path fill="#6B1F12" d="M410.396,377.303c0,0-1.126,18.313-2.452,28.926s-6.865,22.557-8.342,27.6
			c-1.476,5.041-2.538,11.438-1.742,12.352c0.797,0.916,0.797,0.203,4.512,1.49c3.715,1.285,0.796,7.92-0.797,10.043
			c-1.592,2.123-1.326,6.982-5.307,6.809c-3.98-0.176-8.27-8.107-8.515-12.633c-0.244-4.527-0.243-4.527-0.243-4.527
			s0-17.781,0-28.926c0-11.146,2.877-13.799,0.243-21.76c-2.633-7.963-12.435-5.309-11.513-12.738
			c0.922-7.432,35.211-20.98,36.644-17.654C414.314,369.607,410.531,375.203,410.396,377.303z"/>
		<path fill="#8B2D1E" d="M423.414,344.256c0,0,6.289,3.686,5.229,12.529c-1.061,8.842-12.868,22.906-20.565,29.01
			c0,0,1.958-16.852-14.481-9.287c-16.436,7.563-7.855,19.902-5.843,20.168c0,0-11.522-8.625-23.198-7.695
			c-11.676,0.928-55.289-2.168-59.024-10.904c-3.734-8.736-15.636-51.996,22.184-54.969
			C365.536,320.137,405.977,325.012,423.414,344.256z"/>
		<path fill="#8B2D1E" d="M49.126,204.594c0,0,20.185-15.848,49.807-8.279c29.623,7.57,86.178,44.402,106.836,55.639
			c20.66,11.236,50.12,9.955,64.847,10.066c14.727,0.107,33.223,121.668,7.787,123.781c-25.436,2.115-254.721,2.053-272.768-7.469
			C-12.411,368.811,19.374,233.568,49.126,204.594z"/>
		<path fill="none" stroke="#6B1F12" stroke-miterlimit="10" d="M247.132,316.762c0,0-95.009-19.139-196.383,0"/>
	</g>
	<g>
		<g>
			<path fill="#E2C5A0" d="M311.818,428.191c-0.796-4.775-12.474-3.982-14.861-2.387c0,0,5.042,14.064,3.45,18.842
				c-0.728,2.18-1.413,4.074-2.331,5.754c1.455,2.527,3.328,5.063,5.243,5.656c4.04,1.254,7.094,0.068,9.514-1.822
				c0.198-0.598,0.393-1.164,0.578-1.664C315.268,447.564,312.615,432.969,311.818,428.191z"/>
			<path fill="#575858" d="M303.319,456.057c-1.915-0.594-3.788-3.129-5.243-5.656c-1.095,1.996-2.526,3.686-4.834,5.125
				c-4.247,2.656-14.723,7.697-16.119,13.27c-1.396,5.572-0.602,9.316,6.3,9.967c6.9,0.646,13.111,1.975,19.427-4.395
				c5.682-5.73,8.186-14.736,9.983-20.133C310.413,456.125,307.359,457.311,303.319,456.057z"/>
		</g>
		<path fill="#D9D2D8" d="M393.288,194.254c0,0-7.563,1.672-16.32-0.992c-8.758-2.666-17.315,3.504-21.098,7.684
			c-3.781,4.18-20.301,21.496-22.49,24.281c-2.189,2.787-6.429,14.133-7.794,17.316c-1.363,3.186,0.431,27.086,7.994,21.598
			c7.123-5.172,12.206-18.262,16.571-24.102c0,0-20.354,47.883-23.539,51.863c-3.185,3.982,3.925,13.934,5.048,14.531
			c1.122,0.596,49.487,6.367,57.448,9.951c7.962,3.582,6.17,10.549,11.345,13.135c5.175,2.588,17.516,5.176,20.898,4.977
			c3.384-0.199-0.796-33.637-3.185-40.404c-2.388-6.766,14.331-30.051,17.516-43.586c3.185-13.533,12.937-27.268,7.563-33.438
			s-17.913-16.32-24.68-17.117C411.799,199.156,399.465,193.734,393.288,194.254z"/>
		<path fill="#342318" d="M414.784,116.904c0,0-2.56-0.995-6.156,0s-11.757,2.786-14.941,7.563s-6.768,5.772-9.155,12.738
			c-2.389,6.966-1.683,12.329-1.297,19.704c0.386,7.375,2.292,9.063,0.898,16.973c-1.394,7.906,0.181,17.061-1.303,18.057
			c-1.482,0.994,3.135,4.193,5.206,4.285c2.069,0.092,26.749,2.084,26.749,2.084s-9.354,8.957-17.116,17.713
			c-7.763,8.758-2.389,10.947-0.797,14.729c1.593,3.783,1.194,8.559-0.995,10.35c0,0,2.986-0.199,2.787-3.383
			c0,0,4.607,9.951,9.965,10.947c0,0-4.592-2.986-4.393-10.549c0.19-7.18,5.938-9.518,9.075-13.141
			c0.166-0.193,0.328-0.391,0.479-0.594c0,0-3.582,17.715,10.15,26.273c0,0-5.175-4.777-3.781-15.725
			c0,0,5.772,15.525,15.724,15.725c0,0,2.786,13.732,17.117,16.121c0,0-7.364-7.563-8.161-14.928
			c-0.796-7.363,4.578-12.738,6.17-19.902c1.593-7.166,1.991-28.307-2.786-40.326c-4.776-12.02-4.976-38.889-7.762-46.453
			c-2.787-7.563-9.952-22.689-15.326-24.68S417.565,117.344,414.784,116.904z"/>
		<path fill="#E2C5A0" d="M383.934,155.517c0,0-0.56,9.346,0.436,13.127s3.943,8.367,6.531,11.553
			c2.587,3.184,1.691,5.807,1.193,8.16c-1.393,6.568-7.849,9.951-8.602,13.135c-0.751,3.186,5.75,8.359,9.367,10.35
			c3.615,1.99,6.307-0.645,11.427-4.18c4.983-3.439,14.082-12.141,13.484-12.936c-0.597-0.797-0.597-8.957,0.797-13.336
			c1.393-4.379,4.776-10.549,7.165-13.137c2.388-2.586,5.572-2.586,6.966-5.174s2.822-8.03-0.562-7.433
			c-3.383,0.597-4.117,3.296-4.715,2.898c-0.597-0.398-5.075-18.553-12.041-22.334c-6.695-3.635-16.32-4.488-21.297,0.597
			C388.853,142.156,385.128,142.58,383.934,155.517z"/>
		<path fill="#E2C5A0" d="M338.952,160.094c1.194-4.378,2.456-10.018,2.987-12.141c0.591-2.356-1.111-3.383-3.345-1.393
			c-2.231,1.99-4.677,8.676-5.474,9.074c-0.796,0.398-2.705-16.372-5.094-17.367s-2.61,3.914-2.014,6.7
			c0.598,2.787,3.596,9.682,1.804,10.28c-1.791,0.598-1.289-3.957-6.58-3.18c-4.513,0.664-7.962,11.146-7.24,15.259
			c0.499,2.854,5.647,7.695,6.842,8.492c1.194,0.795,3.715,5.904,3.715,6.5c0,0.598-6.579,45.811-2.387,55.598
			c2.392,5.584,5.837,9.553,8.026,9.156c0,0,8.559,0,8.559-13.734c0-13.732-1.791-38.412-1.99-43.986
			C336.563,183.779,337.759,164.473,338.952,160.094z"/>
		<path fill="none" stroke="#DDB78E" stroke-miterlimit="10" d="M328.027,157.904c0,0,4.024,2.549,3.096,5.732
			c-0.928,3.186-3.096,6.477-6.512,7.539c-2.791,0.869-5.217-0.832-5.495-1.195"/>
		<path fill="#E2C5A0" d="M388.113,237.916c0,0-17.315-18.111-19.704-28.064c-2.389-9.951,2.298-24.697,2.588-26.072
			c0.796-3.781-0.737-5.971-3.255-5.771s-3.114,7.563-3.91,9.354c-0.797,1.791-4.578,1.393-5.573-0.795
			c-0.995-2.189-6.568-19.904-8.16-20.303c-1.593-0.398-2.189,2.75-1.394,5.156s4.18,15.543,3.384,15.941s-5.175,3.535-5.175,5.252
			c0,1.715-0.598,6.492-1.394,7.486c-0.796,0.996-0.796,0.996-0.796,0.996s-0.995,1.393,0,3.184s11.345,12.539,13.733,15.326
			c2.388,2.785,17.505,39.607,24.976,47.17c7.467,7.564,7.864-5.971,7.467-13.336C390.502,246.076,388.113,237.916,388.113,237.916z
			"/>
		<path fill="none" stroke="#BFB3C0" stroke-miterlimit="10" d="M380.55,264.984c0,0-1.193,11.545,1.194,13.934
			c2.389,2.389,11.345,18.51,14.331,19.902c2.985,1.395,17.315-11.344,21.694-18.51c4.379-7.164,8.956-17.117,10.549-21.496"/>
		<path fill="none" stroke="#BFB3C0" stroke-miterlimit="10" d="M412.595,253.838c-2.189-2.984-7.763-9.553-14.331-10.748
			c-6.567-1.193-4.369-5.174-7.261-5.174"/>
		<path fill="none" stroke="#BFB3C0" stroke-miterlimit="10" d="M350.099,250.455c0.397,3.383-1.593,15.922-2.189,19.506
			c-0.598,3.584-4.976,9.555-2.588,23.486"/>
		<path fill="none" stroke="#BFB3C0" stroke-miterlimit="10" d="M373.783,269c0,0,0.796,14.895,3.185,19.074
			s4.776,9.354,7.563,14.529"/>
		<g>
			<path fill="#575858" d="M307.572,474.104c-2.297-1.203-3.833-2.09-4.253-3.963c-3.287,4.646-7.349,9.1-11.14,10.861
				c-7.43,3.451-14.178,5.84-14.652,9.023c-0.474,3.186-1.534,7.961,4.039,9.021c5.572,1.061,26.042,1.594,29.475,0
				c3.432-1.592,11.557-7.164,14.129-9.553c2.571-2.389,6.021-1.328,7.879-3.717c1.481-1.902,0.938-13.059,0.389-19.129
				C327.919,470.568,315.465,478.24,307.572,474.104z"/>
			<path fill="#E2C5A0" d="M307.572,474.104c7.893,4.137,20.347-3.535,25.865-7.455c-0.142-1.545-0.282-2.779-0.389-3.426
				c-0.53-3.186,1.116-26.537,0.956-28.129c-0.159-1.594-22.982-1.064-22.982-1.064s0.265,19.109-1.328,24.416
				c-0.78,2.6-3.219,7.236-6.375,11.695C303.739,472.014,305.275,472.9,307.572,474.104z"/>
		</g>
		<path fill="none" stroke="#BFB3C0" stroke-miterlimit="10" d="M336.365,247.09c0,0-0.598,22.672-7.563,14.709"/>
		<path fill="#94A3BF" d="M415.943,331.064c0,0,0.999,12.738-1.125,15.922c-2.124,3.186-8.792,10.883-12.359,10.883
			c-3.566,0-22.008,2.92-25.127,3.715c-3.116,0.797-19.919,5.885-39.559,2.168c0,0,1.915,63.379,2.46,73.994
			c0,0-6.888,4.777-10.868,4.777c-3.981,0-10.614-4.514-13.268-4.514c-2.655,0-11.413,1.859-11.413,1.859l-1.592-10.617
			c0,0-16.188-1.855-16.983,1.594c0,0-4.513-38.479-7.165-53.869c-2.652-15.395-2.124-35.031,6.369-44.32
			s38.805-22.07,41.663-23.883c2.857-1.811,5.044-10.879,7.563-12.738c0,0,10.225,1.061,11.018,1.328
			c0.793,0.264,13.264,1.592,18.572,3.449c5.309,1.855,14.256,4.248,17.478,3.98c3.222-0.266,4.55,9.553,10.919,10.613
			C398.896,316.471,404.335,328.943,415.943,331.064z"/>
		<path fill="none" stroke="#758DB3" stroke-miterlimit="10" d="M347.382,312.223c0,0,7.427,7.164,18.838,7.164
			c0,0-14.091,6.105-24.162,6.9c-10.071,0.797-31.831,3.449-35.016,10.879c-3.185,7.434-5.421,21.697-3.45,46.971
			c1.904,24.42-0.266,38.215,0.53,41.668"/>
	</g>
	<g>
		<path fill="#8495B1" d="M305.91,310.285c0,0,2.185,10.414,1.065,12.803c-1.12,2.389-15.582,18.842-16.18,19.107
			c-0.597,0.268-3.597-9.152-8.824-14.063c-4.66-4.379-13.879-7.033-19.901-6.184c-8.316,1.17-14.072,5.541-15.133,5.805
			s-5.303-8.645-10.079-10.77c-4.777-2.123-16.453-6.369-22.292-1.592s-13.118,10.783-12.322,14.508
			c0.797,3.725-3.627-2.295,3.75-13.047c9.009-13.129,25.556-21.799,30.599-27.424C241.635,283.813,302.78,306.768,305.91,310.285z"
			/>
		<path fill="#DDBF9C" d="M248.442,161.543c0,0-4.433,8.395-3.637,8.943c0.796,0.547,5.971-0.648,6.369,0.943
			c0.397,1.592-14.33,13.932-15.325,16.121c-0.996,2.189-7.166,25.078-10.151,35.029c-2.985,9.953,0.199,8.395,0.199,8.395
			s4.116,10.797,10.485,13.359c0,0-22.626,3.557-25.413,0.355c-2.786-3.201-3.781-11.758-1.393-20.316
			c2.388-8.559,16.121-32.205,16.32-35.707s-2.389-12.061,1.394-16.043c3.781-3.98,9.135-3.602,12.539-3.602
			C241.954,169.021,247.791,154.313,248.442,161.543z"/>
		<path fill="#F1EED3" d="M255.816,451.35c0,0-1.8,6.396-5.105,11.117c-5.13,7.328-11.965,14.367-6.502,16.164
			c7.032,2.316,17.116,1.949,22.591-2.658c5.474-4.605,14.828-13.463,15.525-19.334c0.694-5.871-1.097-8.16-4.878-10.648
			C273.665,443.5,256.777,449.445,255.816,451.35z"/>
		<path fill="#E5E5E5" d="M277.447,213.027c0,0-19.307,0.199-21.695,0c-2.388-0.199-20.102,5.176-23.685,6.369
			c-3.582,1.193-8.757,8.758-8.757,8.758s2.786,13.189,11.543,16.547c8.758,3.355,4.379-0.012,4.379-0.012
			s-2.985,32.064-1.194,38.713c1.792,6.648,27.646,22.572,38.205,23.965c10.559,1.393,28.115,1.99,29.984,0
			c1.87-1.99,7.643-18.672,8.239-23.965c0.598-5.293,7.611-26.988,8.16-30.51c0.407-2.613,2.966-25.867,2.966-25.867
			s-13.912-11.764-16.699-13.18C306.107,212.43,286.204,209.844,277.447,213.027z"/>
		<path fill="#E2C5A9" d="M291.115,338.814c0,0-6.321,10.748-12.78,13.932c-6.459,3.186-8.65,4.18-8.65,4.18
			s6.104,21.297,7.033,27.068c0.928,5.771-0.729,45.775,0,51.15c0.729,5.373,3.867,13.572,2.597,19.029
			c-1.271,5.451-4.077,8.922-4.862,10.07c-0.787,1.152-10.901-9.197-20.672-7.604c0,0,6.351-14.168,5.355-25.1
			c-0.995-10.928-18.311-50.861-20.898-64.928c-2.587-14.066-4.577-20.832-1.791-27.799s12.938-14.131,16.32-15.922
			c3.384-1.793,25.676-2.787,28.661,0.994S291.434,335.434,291.115,338.814z"/>
		<path fill="none" stroke="#D8D9D8" stroke-miterlimit="10" d="M251.183,260.076c0,0-0.473,16.84,1.915,21.615
			c2.389,4.777,14.862,12.422,19.64,14.834c4.776,2.418,15.976,5.865,17.94,7.193"/>
		<path fill="#C86C42" d="M283.219,141.177c0,0-8.359,1.194-11.743,3.98c-3.383,2.787-10.159,7.345-15.927,17.108
			c-5.768,9.762-2.782,32.65-2.782,36.631s-5.175,20.5-7.165,23.684c-1.99,3.186,15.923,48.365,16.32,51.352
			c0.398,2.984-0.397,7.363-3.98,7.563c0,0,5.972,2.389,8.16-1.193c0,0,0.241,5.373-1.768,6.17c0,0,7.341,1.193,9.331-8.359
			c1.99-9.555,4.578-35.229,6.568-36.822c1.99-1.592,26.67-23.039,29.258-27.441c2.587-4.402,2.786-34.355,1.592-43.361
			S306.506,142.769,283.219,141.177z"/>
		<path fill="#E5E5E5" d="M268.52,217.828c0,0-5.275,5.26,10.099,7.572c0,0-15.105,28.158-15.708,33.73
			c-0.604,5.574-0.703-11.578-3.284-24.541C257.041,221.627,268.52,217.828,268.52,217.828z"/>
		<path fill="#DDBF9C" d="M262.32,162.266c0,0-6.568,7.373-6.767,17.723c-0.199,10.35,5.373,25.078,11.146,26.869
			c5.771,1.791,3.98,2.189,3.98,2.189s-1.394,11.078-4.842,12.141c-2.558,0.789,12.206,5.176,20.366,4.777s8.359-9.156,6.768-11.941
			c-1.593-2.787-6.229-7.75-5.639-7.965c3.45-1.262,0.265-5.355,2.056-11.932s-1.393-23.363-3.582-30.293
			c-2.189-6.932-7.584-9.521-11.155-9.521C271.078,154.313,263.515,158.473,262.32,162.266z"/>
		<path fill="#DDBF9C" d="M279.314,270.547l-13.411-17.654l-4.379,1.135c0,0-8.955-14.201-11.942-19.504
			c-2.986-5.303-6.17-13.336-5.771-17.117s5.771-12.539,7.364-15.525c1.592-2.984-1.791-5.174-3.185-5.373s-1.898-6.213-2.542-7.287
			c-0.645-1.072-4.424-0.512-5.021,0.998c-0.597,1.512-11.146,10.469-7.961,21.814c3.185,11.344,3.671,29.174,4.976,33.992
			c1.308,4.836,8.16,25.516,13.136,26.512c4.977,0.994,22.69,0.994,27.068,0C282.024,271.541,279.314,270.547,279.314,270.547z"/>
		<path fill="#E5E5E5" d="M319.843,244.701c0,0-25.875,24.518-35.428,30.621c0,0-14.595-13.666-22.026-27.268
			c0,0,30.783-10.68,36.356-14.66"/>
		<path fill="none" stroke="#D8D9D8" stroke-miterlimit="10" d="M282.291,275.322c0,0,8.095,7.139,8.824,8.08
			c0.729,0.945,20.024-16.279,24.575-23.326"/>
		<path fill="#C86C42" d="M310.843,207.896c0,0-3.204,24.768-0.755,34.189s2.985,29.959-1.494,34.385c0,0-1.492,5.914-6.27,10.047
			c0,0,2.985-3.531,3.782-13.234c0,0-4.18-8.207-3.782-12.537c0,0,2.786,17.4-1.791,22.658c0,0,0.796-10.592-3.384-16.801
			c-4.18-6.207,1.194-34.668,3.185-49.396l-6.58-5.586c0,0-10.081,26.816-19.104,26.549"/>
		<path fill="none" stroke="#D8D9D8" stroke-miterlimit="10" d="M276.718,278.508c0,0,6.633,12.74,10.084,15.129
			c3.45,2.385,15.766,7.43,17.835,7.959"/>
		<path fill="#F1EED3" d="M216.617,483.709c0,0,7.29,1.791,14.455-7.734c3.461-4.6,2.389-11.264,5.971-13.506
			c3.583-2.244,5.332-7.021,5.152-9.41c-0.178-2.389-3.673-9.752-7.101-8.559c-3.425,1.195-19.746,11.256-23.13,17.969
			C208.582,469.18,201.565,479.33,216.617,483.709z"/>
		<path fill="#E2C5A9" d="M244.01,473.955c0.79,0.41,14.515,3.781,19.101,0.797c0,0-1.785-3.98-7.756-6.369
			S238.636,471.17,244.01,473.955z"/>
		<path fill="#E2C5A9" d="M202.625,335.02c0,0,2.175,7.975,2.175,12.486c0,4.514-1.912,22.293-1.089,26.805
			c0.825,4.51,7.192,34.766,8.254,39.01c1.063,4.244,5.309,23.547,5.309,32.076c0,8.527-3.45,14.629-3.45,14.629
			s12.736-2.168,18.045,4.223c0,0,2.654-7.408,5.043-9s0.796-4.678,0-7.25c-0.796-2.568-2.919-12.389-3.185-19.287
			c-0.266-6.9,2.512-62.232,3.113-69.463c0.602-7.229,5.336-13.326,5.355-17.045c0.022-3.717,5.057-19.473,0.014-26.564
			c-5.043-7.086-23.477-5.813-29.182-2.1C207.234,317.309,199.388,326.518,202.625,335.02z"/>
		<path fill="#E2C5A9" d="M225.35,476.936c0,0-3.433,4.043-5.423,4.012c-1.99-0.027-9.952-2.232-11.146-4.012
			c-1.194-1.785-1.194-4.514,0-4.043C209.975,473.359,219.629,470.754,225.35,476.936z"/>
		<path fill="#C86C42" d="M287.522,170.484c0,0,4.985,34.707-15.305,67.238c-12.505,20.051,31.629-19.896,31.629-19.896
			l-8.288-48.807L287.522,170.484z"/>
	</g>
	<g>
		<path fill="#734A38" d="M117.909,112.627c0,0-12.141,0.796-17.714,12.937c-5.573,12.141-4.976,29.59-6.17,34.102
			c-1.194,4.51,1.592,15.457-3.383,19.238c-4.976,3.783-5.175,7.248-2.189,9.297s28.661,0,28.661,0s23.485-4.52,26.671-4.52
			c3.184,0,8.246,0.215,11.078-1.393c2.833-1.607,3.053-5.773,1.262-7.465c-1.792-1.691-2.787-17.195-2.787-20.39
			c0-3.196-5.373-25.685-9.951-31.059C138.807,118.001,128.656,110.637,117.909,112.627z"/>
		<path fill="#F0DAB9" d="M149.489,145.7c0,0,2.389,12.687-1.858,20.144c-4.246,7.455-7.165,11.172-8.491,11.436
			c-1.326,0.264,0,8.492,0,8.492l-22.025,2.428c0,0,0-15.963-0.796-17.555c-0.796-1.592-8.491-4.512-7.695-16.188
			c0.796-11.677,4.511-29.723,15.126-32.908c10.616-3.185,19.904,3.97,21.761,11.007C147.369,139.594,149.489,145.7,149.489,145.7z"
			/>
		<g>
			<path fill="#363736" d="M96.831,432.705c-1.121-3.023-1.84-16.701-2.18-24.926c-4.294,2.311-8.457,5.271-10.181,9.006
				c-1.694,3.672,3.185,12.072,2.388,16.584c-0.796,4.51-8.227,21.494,0,29.93c8.227,8.438,19.107-1.535,20.434-4.01
				c0.776-1.445,0.917-10.422,1.112-18.42c-0.644,0.258-1.322,0.412-2.042,0.395C101.292,441.139,98.403,436.945,96.831,432.705z"/>
			<path fill="#F0DAB9" d="M131.044,375.252c-1.194,0.795-22.423,24.68-24.016,26.537c-0.903,1.055-6.752,2.963-12.377,5.99
				c0.34,8.225,1.059,21.902,2.18,24.926c1.574,4.24,4.462,8.434,9.535,8.559c0.719,0.018,1.397-0.137,2.041-0.395
				c0.139-5.68,0.304-10.867,0.746-12.502c1.062-3.941,10.083-15.432,13.534-19.945c3.451-4.512,13.534-12.205,13.534-12.205
				S132.239,374.455,131.044,375.252z"/>
		</g>
		<g>
			<path fill="#363736" d="M52.228,436.287c-5.52-4.809-3.407-17.527-1.861-24.051c-1.161,1.15-2.281,2.129-3.313,2.822
				c-6.899,4.641-11.146,13.926-11.412,17.779c-0.266,3.855-4.511,10.186-4.776,14.064c-0.266,3.881,3.185,21.691,17.781,21.992
				s12.472-14.869,12.738-17.898c0.166-1.883,0.928-9.117,1.813-15.365C60.35,438.488,56.709,440.188,52.228,436.287z"/>
			<path fill="#F0DAB9" d="M64.834,393.297c0,0-7.869,12.379-14.467,18.939c-1.544,6.525-3.659,19.246,1.861,24.051
				c4.479,3.9,8.122,2.201,10.968-0.658c0.538-3.805,1.12-7.246,1.638-8.895c1.858-5.908,8.491-22.027,15.126-22.822
				C86.595,403.115,66.956,393.826,64.834,393.297z"/>
		</g>
		<path fill="#F0DAB9" d="M165.942,158.506c0,0,1.603,0.463,2.924,3.381s6.096,4.529,3.709,17.391c0,0,10.616,18.701,11.412,24.008
			s13.534-5.043,13.534-5.043s-7.165-12.471-8.956-20.102c-1.42-6.049,4.976-8.043,4.976-10.158s0.796-6.561-3.185-9.479
			c-3.98-2.918-5.043-8.294-5.308-10.153c-0.263-1.858-3.316,1.858-3.316,1.858s-2.256,7.3-3.582,8.294s-8.758-3.252-10.35-3.252
			C166.208,155.251,165.679,155.654,165.942,158.506z"/>
		<path fill="#D7D6D8" d="M99.796,179.535c0,0,7.965-2.271,14.131,2.389c6.167,4.66,7.955,4.379,11.676,4.379
			c11.174,0,8.625-1.725,13.8-2.787c6.072-1.246,18.955,9.586,22.538,11.461c3.582,1.873,16.719,13.186,17.515,13.898
			s0.57-6.938,3.769-9.979c3.197-3.041,14.59-10.873,18.048-5.664c3.462,5.209,2.911,36.654,0,38.447
			c-2.906,1.791-28.385,0.994-30.772,1.193c-2.389,0.199-0.398,20.148-0.398,24.705c0,4.555,2.189,42.822,0.598,47.471
			c-1.593,4.648,3.98,20.771,6.368,25.35c2.389,4.578,12.738,10.549,13.336,20.303c0.597,9.752,2.985,21.295,2.587,22.291
			c-0.398,0.994-6.968,5.971-7.167,6.568c-0.198,0.596,1.194,13.135,1.194,13.135s-21.296-4.379-26.073-4.18
			c-4.776,0.199-23.685,9.953-26.67,10.748c-2.986,0.797-6.17-18.908-6.17-18.908s-9.554,7.564-13.136,32.842
			c0,0-42.991-2.986-45.379,2.387c-2.389,5.375-14.331-8.559-14.529-17.713c-0.199-9.156,6.369-57.719,7.364-63.492
			c0.995-5.771,0.398-16.52,1.592-23.484c1.194-6.967,8.948-28.258,11.895-35.627c2.787-6.967,10.062-24.084,10.627-28.662
			c0.565-4.576-2.62-19.234-2.62-23.25c0-4.018,0.98-25.512,4.332-31.682C91.603,185.504,96.977,178.943,99.796,179.535z"/>
		<path fill="none" stroke="#B9B8BC" stroke-miterlimit="10" d="M116.515,190.084c0,0,19.903,21.695,21.894,24.879"/>
		<path fill="none" stroke="#B9B8BC" stroke-miterlimit="10" d="M88.253,219.475c0,0,40.204,27.932,48.166,29.523
			s28.262-14.836,30.85-19.063"/>
		<path fill="#F0DAB9" d="M157.715,177.014c0,0,3.185,7.424,2.654,10.611c-0.53,3.189,0.386,11.783,0.061,14.121
			c-0.324,2.338-4.571,7.113-4.571,7.113s9.024-1.594,12.738,10.615c0,0,3.451-11.664,6.103-14.326
			c2.653-2.66,7.432-4.518,7.166-10.09c-0.267-5.572-6.104-9.287-6.369-11.146c-0.267-1.857,3.98-8.49,3.185-10.084
			c-0.797-1.592-9.012,8.758-9.814,10.617c-0.803,1.857-5.313-7.695-6.904-7.695C160.369,176.75,159.041,174.889,157.715,177.014z"
			/>
		<path fill="none" stroke="#B9B8BC" stroke-miterlimit="10" d="M111.34,210.469c0,0,9.554-1.01,22.889,2.34"/>
		<path fill="none" stroke="#B9B8BC" stroke-miterlimit="10" d="M143.385,191.676c0,0,6.966,6.438,7.961,21.131"/>
		<path fill="none" stroke="#B9B8BC" stroke-miterlimit="10" d="M185.978,223.721c0,0-2.587-7.893-4.976-10.914"/>
		<path fill="none" stroke="#B9B8BC" stroke-miterlimit="10" d="M194.937,220.734c0,0-9.201-9.873-13.061-10.41"/>
		<path fill="none" stroke="#B9B8BC" stroke-miterlimit="10" d="M165.878,266.373c0,0-0.6,18.373-3.784,24.084
			s-5.705,18.848-6.237,22.031c-0.531,3.186-5.705,15.924-8.491,20.701c-2.786,4.775-15.126,32.641-16.321,39.408"/>
		<path fill="none" stroke="#B9B8BC" stroke-miterlimit="10" d="M173.638,338.363c0,0-15.325-5.572-39.409,31.447"/>
		<path fill="none" stroke="#B9B8BC" stroke-miterlimit="10" d="M136.22,285.479c0,0-9.354,25.533-13.436,28.859
			s-14.431,13.277-21.198,17.656"/>
		<path fill="none" stroke="#B9B8BC" stroke-miterlimit="10" d="M90.442,348.314c0,0,11.942-3.582,12.738,0
			c0.796,3.584-10.748,10.736-12.738,15.121"/>
		<path fill="none" stroke="#B9B8BC" stroke-miterlimit="10" d="M94.652,255.035c0,0-0.627,13.023-4.21,19.25
			s-13.136,18.021-14.728,22.738"/>
	</g>
</g>
</svg>
