<?xml version="1.0" encoding="utf-8"?>
<!-- Generator: Adobe Illustrator 16.0.0, SVG Export Plug-In . SVG Version: 6.00 Build 0)  -->
<!DOCTYPE svg PUBLIC "-//W3C//DTD SVG 1.1//EN" "http://www.w3.org/Graphics/SVG/1.1/DTD/svg11.dtd">
<svg version="1.1" id="Layer_1" xmlns="http://www.w3.org/2000/svg" xmlns:xlink="http://www.w3.org/1999/xlink" x="0px" y="0px"
	 width="50px" height="50px" viewBox="0 0 50 50" enable-background="new 0 0 50 50" xml:space="preserve">
<path opacity="0.5" fill="#010101" d="M48.3,16.066c-0.458-0.379-10.91-8.784-13.208-10.611C32.934,3.729,29.242,0,25,0
	c-4.219,0-7.875,3.683-10.091,5.455C12.52,7.354,2.109,15.728,1.711,16.056C0.628,16.946,0,18.274,0,19.676v25.636
	C0,47.901,2.099,50,4.688,50h40.625C47.902,50,50,47.901,50,45.313V19.679C50,18.281,49.377,16.957,48.3,16.066z M45.313,44.727
	c0,0.324-0.262,0.586-0.586,0.586H5.274c-0.324,0-0.586-0.262-0.586-0.586V19.956c0-0.177,0.08-0.344,0.217-0.456
	c1.55-1.251,10.625-8.55,12.926-10.38C19.605,7.703,22.696,4.688,25,4.688c2.314,0,5.455,3.063,7.169,4.433
	c2.302,1.83,11.377,9.13,12.926,10.382c0.138,0.111,0.217,0.279,0.217,0.456V44.727z M42.189,26.396
	c0.414,0.504,0.338,1.249-0.171,1.658c-2.829,2.273-5.788,4.648-6.927,5.553C32.875,35.379,29.22,39.063,25,39.063
	c-4.243,0-7.938-3.734-10.091-5.455c-1.102-0.875-4.077-3.263-6.926-5.553c-0.509-0.409-0.585-1.155-0.17-1.658l1.49-1.81
	c0.408-0.495,1.139-0.57,1.639-0.168c2.795,2.246,5.719,4.594,6.891,5.524c1.714,1.369,4.855,4.433,7.169,4.433
	c2.304,0,5.395-3.016,7.169-4.433c1.171-0.931,4.096-3.278,6.891-5.524c0.5-0.402,1.23-0.327,1.639,0.168L42.189,26.396
	L42.189,26.396z"/>
</svg>
