<?xml version="1.0" encoding="utf-8"?>
<!-- Generator: Adobe Illustrator 16.0.0, SVG Export Plug-In . SVG Version: 6.00 Build 0)  -->
<!DOCTYPE svg PUBLIC "-//W3C//DTD SVG 1.1//EN" "http://www.w3.org/Graphics/SVG/1.1/DTD/svg11.dtd">
<svg version="1.1" id="Layer_1" xmlns="http://www.w3.org/2000/svg" xmlns:xlink="http://www.w3.org/1999/xlink" x="0px" y="0px"
	 width="50px" height="50px" viewBox="0 0 50 50" enable-background="new 0 0 50 50" xml:space="preserve">
<path opacity="0.5" fill="#010101" d="M45.313,6.25H4.688C2.099,6.25,0,8.349,0,10.938v28.125c0,2.589,2.099,4.688,4.688,4.688
	h40.625c2.589,0,4.688-2.099,4.688-4.688V10.938C50,8.349,47.901,6.25,45.313,6.25z M45.313,10.938v3.985
	c-2.189,1.783-5.681,4.556-13.143,10.4c-1.645,1.293-4.902,4.4-7.17,4.365c-2.267,0.036-5.525-3.072-7.169-4.365
	c-7.462-5.843-10.954-8.616-13.144-10.4v-3.985H45.313z M4.688,39.063V20.937c2.238,1.783,5.411,4.284,10.248,8.071
	c2.135,1.681,5.873,5.39,10.065,5.367c4.172,0.022,7.862-3.633,10.064-5.366c4.836-3.787,8.01-6.289,10.248-8.071v18.125H4.688z"/>
</svg>
