<?xml version="1.0" encoding="utf-8"?>
<!-- Generator: Adobe Illustrator 16.0.0, SVG Export Plug-In . SVG Version: 6.00 Build 0)  -->
<!DOCTYPE svg PUBLIC "-//W3C//DTD SVG 1.1//EN" "http://www.w3.org/Graphics/SVG/1.1/DTD/svg11.dtd">
<svg version="1.1" id="Layer_1" xmlns="http://www.w3.org/2000/svg" xmlns:xlink="http://www.w3.org/1999/xlink" x="0px" y="0px"
	 width="87.5px" height="51.042px" viewBox="0 0 87.5 51.042" enable-background="new 0 0 87.5 51.042" xml:space="preserve">
<g>
	<g>
		<path fill="#DDDDDD" d="M6.851,29.662c-1.334,0-2.408-0.931-2.408-2.853s1.074-2.853,2.408-2.853c0.537,0,1.033,0.122,1.318,0.298
			L7.8,25.116c-0.168-0.114-0.47-0.221-0.806-0.221c-0.78,0-1.333,0.655-1.333,1.906s0.553,1.899,1.333,1.899
			c0.336,0,0.638-0.1,0.806-0.213l0.369,0.876C7.884,29.539,7.405,29.662,6.851,29.662z"/>
		<path fill="#DDDDDD" d="M12.062,29.57v-2.356h-1.863v2.356H9.016v-5.521h1.182v2.28h1.863v-2.28h1.183v5.521H12.062z"/>
		<path fill="#DDDDDD" d="M14.368,29.57v-5.521h3.231v0.899h-2.073v1.381h1.871v0.885h-1.871v1.457h2.073v0.899H14.368z"/>
		<path fill="#DDDDDD" d="M20.532,29.662c-1.594,0-2.349-1.244-2.349-2.853s0.755-2.853,2.349-2.853c1.595,0,2.35,1.244,2.35,2.853
			S22.127,29.662,20.532,29.662z M20.532,24.911c-0.772,0-1.166,0.762-1.166,1.898s0.394,1.899,1.166,1.899
			c0.772,0,1.166-0.763,1.166-1.899S21.305,24.911,20.532,24.911z"/>
		<path fill="#DDDDDD" d="M27.192,29.57l-2.174-3.272c-0.201-0.304-0.36-0.647-0.36-0.647h-0.017c0,0,0.017,0.374,0.017,0.717v3.203
			h-1.007v-5.521h1.015l2.123,3.188c0.193,0.298,0.361,0.647,0.361,0.647h0.016c0,0-0.016-0.388-0.016-0.739v-3.097h1.015v5.521
			H27.192z"/>
		<path fill="#DDDDDD" d="M31.694,29.662c-1.695,0-2.761-1.106-2.761-2.853c0-1.747,1.133-2.853,2.861-2.853
			c0.622,0,1.209,0.13,1.52,0.298l-0.37,0.839c-0.235-0.122-0.629-0.221-1.108-0.221c-0.956,0-1.719,0.608-1.719,1.929
			c0,1.319,0.713,1.951,1.493,1.951c0.293,0,0.537-0.036,0.647-0.082v-1.542h-0.932v-0.815h2.039v3.051
			C33.037,29.524,32.416,29.662,31.694,29.662z"/>
		<path fill="#DDDDDD" d="M33.613,31.24v-0.923c0.637-0.145,1.057-0.549,1.057-1.357v-4.911h1.182v4.911
			C35.852,30.363,35.006,31.08,33.613,31.24z"/>
		<path fill="#DDDDDD" d="M39.049,29.646c-1.183,0-2.072-0.617-2.072-1.708v-3.89h1.184v3.897c0,0.487,0.395,0.777,0.889,0.777
			c0.496,0,0.889-0.29,0.889-0.777v-3.897h1.183v3.89C41.122,29.029,40.233,29.646,39.049,29.646z"/>
		<path fill="#DDDDDD" d="M6.851,37.493c-1.334,0-2.408-0.93-2.408-2.853c0-1.922,1.074-2.853,2.408-2.853
			c0.537,0,1.033,0.123,1.318,0.299L7.8,32.947c-0.168-0.114-0.47-0.221-0.806-0.221c-0.78,0-1.333,0.655-1.333,1.906
			c0,1.252,0.553,1.899,1.333,1.899c0.336,0,0.638-0.099,0.806-0.214l0.369,0.877C7.884,37.371,7.405,37.493,6.851,37.493z"/>
		<path fill="#DDDDDD" d="M9.016,37.402v-5.522h1.182v5.522H9.016z"/>
		<path fill="#DDDDDD" d="M13.343,32.78v4.622h-1.183V32.78h-1.284v-0.9h3.741v0.9H13.343z"/>
		<path fill="#DDDDDD" d="M17.771,35.236v2.166h-1.183v-2.166l-1.804-3.356h1.276l1.107,2.272h0.017l1.116-2.272h1.274
			L17.771,35.236z"/>
	</g>
	<g>
		<path fill="#DDDDDD" d="M42.197,6.53v13.605h0.651c0.725,0,1.315-0.541,1.315-1.208V6.53H42.197z"/>
		<path fill="#DDDDDD" d="M13.971,9.301h-2.736v1.3h2.736v3.555h0.651c0.723,0,1.315-0.542,1.315-1.208V6.53h-1.967V9.301z"/>
		<path fill="#DDDDDD" d="M37.771,6.629h-1.964v3.562c0.002,0.215-0.031,1.172-0.433,1.969c-0.416,0.815-1.112,1.628-2.952,2.493
			l0.844,1.129c1.576-0.537,2.845-1.503,3.522-2.426c0.675,0.922,1.946,1.889,3.523,2.426l0.841-1.129
			c-1.838-0.865-2.536-1.678-2.951-2.493c-0.401-0.797-0.433-1.754-0.431-1.969V6.629z"/>
		<path fill="#DDDDDD" d="M18.19,15.729h5.578v4.534h0.683c0.762,0,1.382-0.542,1.382-1.209v-3.325h5.577V14.43H18.19V15.729z"/>
		<path fill="#DDDDDD" d="M25.8,8.146h3.759v-1.3h-9.58v1.3h3.756v0.092c-0.007,0.142-0.038,1.035-0.605,1.75
			c-0.57,0.711-1.639,1.539-3.959,1.945l0.673,1.383c2.444-0.466,4.042-1.37,4.924-2.403c0.883,1.033,2.481,1.937,4.925,2.403
			l0.671-1.383c-2.317-0.406-3.388-1.234-3.958-1.945C25.837,9.27,25.807,8.375,25.8,8.236V8.146z"/>
		<path fill="#DDDDDD" d="M11.879,14.38c-2.097,0-3.795,1.372-3.795,3.064c0,1.69,1.699,3.063,3.795,3.063
			c2.095,0,3.794-1.372,3.794-3.063C15.673,15.751,13.974,14.38,11.879,14.38z M11.879,19.205c-0.956,0-1.73-0.787-1.73-1.761
			c0-0.975,0.774-1.764,1.73-1.764s1.73,0.789,1.73,1.764C13.609,18.417,12.835,19.205,11.879,19.205z"/>
		<path fill="#DDDDDD" d="M11.859,13.799l0.806-1.252c-1.898-0.8-2.614-1.564-3.005-2.365c-0.355-0.746-0.396-1.465-0.4-1.883h2.779
			V6.999H9.26v-1.09H7.296v1.09H4.515v1.299h2.779c-0.004,0.417-0.045,1.137-0.401,1.883c-0.391,0.801-1.106,1.565-3.004,2.365
			l0.805,1.252c1.834-0.691,3-1.662,3.583-2.625C8.86,12.137,10.028,13.108,11.859,13.799z"/>
	</g>
	<path fill="#DDDDDD" d="M71.804,6.531c-0.866,0.005-1.728,0.061-2.594,0.146v8.987c0.922-0.135,1.85-0.206,2.779-0.206
		c0.358,0,0.716,0.011,1.072,0.031c0.021,0.361,0.03,0.723,0.03,1.085c-0.004,4.849-1.835,9.657-5.53,13.355v-0.001
		c-2.376,2.375-5.208,3.974-8.213,4.819v9.154c5.318-0.996,10.416-3.558,14.521-7.664l0.001-0.001
		c5.419-5.42,8.138-12.562,8.134-19.663V6.531H71.804z M44.163,44.38h10.063c0.89,0,1.782-0.041,2.67-0.128l0-8.984
		c-0.89,0.128-1.79,0.192-2.689,0.192c-0.364,0-0.725-0.01-1.087-0.03c-0.021-0.362-0.031-0.724-0.031-1.086
		c0.004-4.849,1.835-9.655,5.532-13.354c2.355-2.353,5.159-3.945,8.14-4.798V7.034c-5.291,1.006-10.359,3.558-14.447,7.649
		c-5.379,5.374-8.112,12.441-8.15,19.488V44.38z"/>
</g>
</svg>
