<?xml version="1.0" encoding="utf-8"?>
<!-- Generator: Adobe Illustrator 16.0.0, SVG Export Plug-In . SVG Version: 6.00 Build 0)  -->
<!DOCTYPE svg PUBLIC "-//W3C//DTD SVG 1.1//EN" "http://www.w3.org/Graphics/SVG/1.1/DTD/svg11.dtd">
<svg version="1.1" id="Layer_1" xmlns="http://www.w3.org/2000/svg" xmlns:xlink="http://www.w3.org/1999/xlink" x="0px" y="0px"
	 width="177.333px" height="69px" viewBox="0 0 177.333 69" enable-background="new 0 0 177.333 69" xml:space="preserve">
<g>
	<g>
		<g>
			<g>
				<polygon points="115.741,20.946 120.962,20.946 120.962,15.788 114.046,15.788 114.046,17.494 119.111,17.494 119.111,19.251 
					113.884,19.251 113.884,24.358 122.448,24.358 122.448,22.664 115.741,22.664 				"/>
				<rect x="123.744" y="15.347" width="1.854" height="9.337"/>
				<path d="M118.343,25.56h-1.864v6.166h9.119v-6.152h-1.862v1.433h-5.393V25.56z M123.736,28.572v1.509h-5.393v-1.509H123.736z"/>
			</g>
			<g>
				<rect x="139.025" y="15.347" width="1.855" height="15.051"/>
				<path d="M128.505,24.892h7.903v-9.104h-7.903V24.892z M130.36,17.459h4.193v5.759h-4.193V17.459z"/>
			</g>
			<g>
				<polygon points="165.009,21.488 166.86,21.488 166.86,15.788 159.349,15.788 159.349,17.538 165.009,17.538 				"/>
				<polygon points="163.14,19.998 161.285,19.998 161.285,22.805 158.408,22.805 158.408,24.424 167.727,24.424 167.727,22.805 
					163.14,22.805 				"/>
				<polygon points="170.725,15.353 168.875,15.353 168.875,25.477 170.725,25.477 170.725,20.828 172.945,20.828 172.945,19.12 
					170.725,19.12 				"/>
				<polygon points="162.547,26.527 160.694,26.527 160.694,31.12 170.739,31.12 170.739,29.422 162.547,29.422 				"/>
			</g>
			<g>
				<polygon points="88.604,31.12 90.458,31.12 90.458,26.377 96.362,26.377 96.362,24.677 82.702,24.677 82.702,26.377 
					88.604,26.377 				"/>
				<polygon points="89.53,20.284 94.206,23.28 95.39,21.826 90.457,18.722 90.457,17.486 94.837,17.486 94.837,15.788 
					84.223,15.788 84.223,17.486 88.604,17.486 88.604,18.724 83.674,21.826 84.857,23.28 				"/>
			</g>
			<g>
				<polygon points="78.68,24.537 80.536,24.537 80.536,15.336 78.68,15.336 78.68,18.616 76.564,18.616 76.564,20.336 
					78.68,20.336 				"/>
				<path d="M76.03,24.589c-2.071,0-3.757,1.683-3.757,3.755c0,2.069,1.686,3.755,3.757,3.755c2.07,0,3.758-1.686,3.758-3.755
					C79.788,26.272,78.1,24.589,76.03,24.589z M76.03,30.322c-1.09,0-1.979-0.887-1.979-1.978s0.889-1.979,1.979-1.979
					c1.088,0,1.979,0.888,1.979,1.979S77.118,30.322,76.03,30.322z"/>
				<polygon points="75.752,22.757 72.349,18.988 72.349,18.012 75.303,18.012 75.303,16.314 72.349,16.314 72.349,14.698 
					70.498,14.698 70.498,16.314 67.542,16.314 67.542,18.012 70.498,18.012 70.498,19.034 67.16,22.732 68.536,23.974 
					71.421,20.777 74.331,23.951 				"/>
			</g>
			<g>
				<rect x="108.951" y="15.347" width="1.854" height="15.051"/>
				<polygon points="103.288,15.788 101.434,15.788 101.434,18.644 97.344,25.102 98.866,26.035 102.362,20.508 105.854,26.035 
					107.377,25.102 103.288,18.631 				"/>
			</g>
			<g>
				<polygon points="149.16,24.769 145.346,24.769 145.346,26.382 153.294,26.382 153.294,27.47 145.349,27.47 145.349,31.726 
					155.053,31.726 155.053,30.144 147.092,30.144 147.092,29.059 155.039,29.059 155.039,24.769 151.016,24.769 151.016,23.6 
					156.792,23.6 156.792,21.958 143.268,21.958 143.268,23.6 149.16,23.6 				"/>
				<polygon points="150.084,17.517 155.045,20.909 156.147,19.544 151.012,16.03 151.012,14.698 149.16,14.698 149.16,16.03 
					144.023,19.544 145.127,20.909 				"/>
			</g>
		</g>
		<g>
			<g>
				<path fill="#231F20" d="M69.528,44.805c-0.491,0-0.912-0.18-1.237-0.502c-0.462-0.463-0.454-0.986-0.454-1.893
					c0-0.9-0.008-1.426,0.454-1.887c0.325-0.324,0.746-0.502,1.237-0.502c0.863,0,1.513,0.508,1.677,1.445h-0.726
					c-0.112-0.477-0.429-0.803-0.951-0.803c-0.277,0-0.528,0.104-0.696,0.281c-0.23,0.254-0.282,0.521-0.282,1.465
					c0,0.947,0.052,1.217,0.282,1.467c0.168,0.18,0.418,0.287,0.696,0.287c0.522,0,0.844-0.33,0.958-0.807h0.72
					C71.048,44.299,70.38,44.805,69.528,44.805z"/>
				<path fill="#231F20" d="M74.778,44.768v-2.059h-1.91v2.059h-0.713v-4.705h0.713v2.006h1.91v-2.006h0.712v4.705H74.778z"/>
				<path fill="#231F20" d="M76.718,44.768v-4.705h3.006v0.641h-2.293v1.371h1.955v0.635h-1.955v1.416h2.293v0.643H76.718z"/>
				<path fill="#231F20" d="M83.461,44.303c-0.324,0.322-0.74,0.502-1.242,0.502s-0.912-0.18-1.235-0.502
					c-0.462-0.463-0.454-0.986-0.454-1.893c0-0.9-0.008-1.426,0.454-1.887c0.323-0.324,0.733-0.502,1.235-0.502
					s0.918,0.178,1.242,0.502c0.462,0.461,0.448,0.986,0.448,1.887C83.91,43.316,83.923,43.84,83.461,44.303z M82.92,40.953
					c-0.165-0.178-0.424-0.289-0.701-0.289s-0.535,0.111-0.701,0.289c-0.23,0.25-0.276,0.514-0.276,1.457
					c0,0.947,0.046,1.211,0.276,1.463c0.166,0.18,0.424,0.291,0.701,0.291s0.536-0.111,0.701-0.291
					c0.229-0.252,0.276-0.516,0.276-1.463C83.197,41.467,83.15,41.203,82.92,40.953z"/>
				<path fill="#231F20" d="M87.851,44.768l-2.172-3.313v3.313h-0.715v-4.705h0.655l2.173,3.303v-3.303h0.714v4.705H87.851z"/>
				<path fill="#231F20" d="M92.548,44.27c-0.358,0.375-0.801,0.535-1.295,0.535c-0.49,0-0.913-0.18-1.236-0.502
					c-0.463-0.463-0.456-0.986-0.456-1.893c0-0.9-0.007-1.426,0.456-1.887c0.323-0.324,0.731-0.502,1.236-0.502
					c0.995,0,1.579,0.652,1.711,1.459h-0.72c-0.12-0.514-0.464-0.816-0.991-0.816c-0.279,0-0.528,0.111-0.695,0.289
					c-0.231,0.25-0.284,0.514-0.284,1.457c0,0.947,0.053,1.217,0.284,1.467c0.167,0.18,0.416,0.287,0.695,0.287
					c0.309,0,0.58-0.119,0.766-0.33c0.171-0.197,0.238-0.439,0.238-0.74v-0.266h-1.004v-0.607h1.717v0.721
					C92.97,43.549,92.859,43.938,92.548,44.27z"/>
				<path fill="#231F20" d="M94.402,44.805c-0.483,0-0.821-0.133-1.144-0.455l0.476-0.473c0.165,0.168,0.322,0.287,0.668,0.287
					c0.527,0,0.852-0.324,0.852-0.939v-3.162h0.714v3.215C95.967,44.256,95.266,44.805,94.402,44.805z"/>
				<path fill="#231F20" d="M98.739,44.805c-0.957,0-1.685-0.656-1.685-1.625v-3.117h0.715v3.086c0,0.625,0.382,1.016,0.97,1.016
					c0.589,0,0.979-0.391,0.979-1.016v-3.086h0.715v3.117C100.432,44.148,99.699,44.805,98.739,44.805z"/>
			</g>
			<g>
				<g>
					<path fill="#231F20" d="M71.444,52.936v-3.143l-1.085,2.295H69.83l-1.11-2.295v3.143h-0.711v-4.701h0.711l1.375,2.928
						l1.348-2.928h0.713v4.701H71.444z"/>
					<path fill="#231F20" d="M74.988,52.979c-0.959,0-1.686-0.652-1.686-1.627v-3.117h0.714v3.086c0,0.627,0.384,1.018,0.972,1.018
						c0.587,0,0.978-0.391,0.978-1.018v-3.086h0.713v3.117C76.679,52.326,75.947,52.979,74.988,52.979z"/>
					<path fill="#231F20" d="M79.083,52.979c-0.706,0-1.217-0.162-1.665-0.617l0.475-0.473c0.345,0.346,0.721,0.449,1.203,0.449
						c0.614,0,0.972-0.262,0.972-0.719c0-0.203-0.061-0.375-0.187-0.488c-0.119-0.115-0.237-0.16-0.515-0.197l-0.555-0.082
						c-0.383-0.047-0.688-0.186-0.893-0.375c-0.229-0.219-0.342-0.516-0.342-0.9c0-0.816,0.594-1.383,1.572-1.383
						c0.62,0,1.056,0.16,1.461,0.539l-0.458,0.447c-0.29-0.277-0.626-0.363-1.024-0.363c-0.553,0-0.858,0.318-0.858,0.734
						c0,0.17,0.053,0.324,0.18,0.436c0.118,0.105,0.311,0.186,0.528,0.219l0.534,0.08c0.438,0.066,0.681,0.172,0.878,0.35
						c0.26,0.225,0.384,0.563,0.384,0.965C80.773,52.463,80.067,52.979,79.083,52.979z"/>
					<path fill="#231F20" d="M81.73,52.936v-4.701h3.006v0.643h-2.292v1.373h1.955v0.635h-1.955v1.414h2.292v0.637H81.73z"/>
					<path fill="#231F20" d="M87.323,52.979c-0.957,0-1.685-0.652-1.685-1.627v-3.117h0.714v3.086c0,0.627,0.385,1.018,0.971,1.018
						c0.589,0,0.979-0.391,0.979-1.018v-3.086h0.713v3.117C89.015,52.326,88.282,52.979,87.323,52.979z"/>
					<path fill="#231F20" d="M93.604,52.936v-3.143l-1.083,2.295h-0.529l-1.108-2.295v3.143h-0.714v-4.701h0.714l1.374,2.928
						l1.347-2.928h0.714v4.701H93.604z"/>
				</g>
				<g>
					<path fill="#231F20" d="M99.883,52.479c-0.323,0.324-0.739,0.5-1.241,0.5c-0.503,0-0.913-0.176-1.236-0.5
						c-0.463-0.465-0.454-0.986-0.454-1.889c0-0.906-0.009-1.43,0.454-1.891c0.323-0.326,0.733-0.506,1.236-0.506
						c0.502,0,0.918,0.18,1.241,0.506c0.462,0.461,0.449,0.984,0.449,1.891C100.333,51.492,100.345,52.014,99.883,52.479z
						 M99.342,49.129c-0.166-0.18-0.423-0.293-0.7-0.293c-0.279,0-0.537,0.113-0.7,0.293c-0.232,0.248-0.278,0.518-0.278,1.461
						c0,0.941,0.046,1.205,0.278,1.459c0.163,0.18,0.421,0.289,0.7,0.289c0.277,0,0.534-0.109,0.7-0.289
						c0.231-0.254,0.276-0.518,0.276-1.459C99.619,49.646,99.574,49.377,99.342,49.129z"/>
					<path fill="#231F20" d="M102.102,48.877v1.434h1.953v0.641h-1.953v1.984h-0.714v-4.701h3.005v0.643H102.102z"/>
				</g>
				<g>
					<path fill="#231F20" d="M109.538,52.936l-0.324-0.939h-1.855l-0.325,0.939h-0.758L108,48.234h0.575l1.723,4.701H109.538z
						 M108.302,49.301l-0.732,2.086h1.446L108.302,49.301z"/>
					<path fill="#231F20" d="M113.56,52.936l-0.992-1.977h-0.893v1.977h-0.713v-4.701h1.824c0.892,0,1.459,0.578,1.459,1.377
						c0,0.674-0.409,1.102-0.939,1.248l1.084,2.076H113.56z M112.734,48.877h-1.059v1.475h1.059c0.476,0,0.798-0.273,0.798-0.734
						S113.209,48.877,112.734,48.877z"/>
					<path fill="#231F20" d="M116.878,48.877v4.059h-0.713v-4.059h-1.294v-0.643h3.304v0.643H116.878z"/>
				</g>
			</g>
		</g>
	</g>
	<path fill="#231F20" d="M49.186,39.545c-2.586,0-5.002,1.158-6.608,3.152c-2.443,2.844-5.983,4.475-9.712,4.475
		c-7.061,0-12.806-5.742-12.806-12.803c0-7.061,5.745-12.805,12.806-12.805c3.734,0,7.278,1.635,9.724,4.485
		c1.561,1.915,3.936,3.144,6.597,3.144c4.693,0,8.508-3.817,8.508-8.511c0-2.11-0.776-4.04-2.051-5.527
		C49.958,8.423,41.662,4.563,32.865,4.563c-16.437,0-29.808,13.371-29.808,29.806c0,16.438,13.371,29.807,29.808,29.807
		c8.639,0,16.852-3.758,22.499-10.279c1.503-1.588,2.331-3.664,2.331-5.84C57.694,43.365,53.878,39.545,49.186,39.545z
		 M49.186,27.372c-3.689,0-6.689-3.002-6.689-6.689c0-3.687,3-6.687,6.689-6.687c3.687,0,6.684,3,6.684,6.687
		C55.87,24.37,52.872,27.372,49.186,27.372z M54.012,52.674c-5.327,6.152-13.037,9.68-21.147,9.68
		c-15.429,0-27.984-12.553-27.984-27.984c0-15.43,12.555-27.984,27.984-27.984c6.246,0,12.218,2.083,17.07,5.824
		c-0.248-0.021-0.497-0.037-0.749-0.037c-4.693,0-8.512,3.818-8.512,8.51c0,0.487,0.05,0.961,0.128,1.426
		c-2.343-1.52-5.089-2.366-7.937-2.366c-8.067,0-14.628,6.561-14.628,14.627c0,8.066,6.562,14.627,14.628,14.627
		c4.261,0,8.306-1.861,11.112-5.131c1.279-1.588,3.178-2.498,5.209-2.498c3.687,0,6.684,3.002,6.684,6.689
		C55.87,49.766,55.22,51.395,54.012,52.674z"/>
</g>
</svg>
