<?xml version="1.0" encoding="utf-8"?>
<!-- Generator: Adobe Illustrator 16.0.0, SVG Export Plug-In . SVG Version: 6.00 Build 0)  -->
<!DOCTYPE svg PUBLIC "-//W3C//DTD SVG 1.1//EN" "http://www.w3.org/Graphics/SVG/1.1/DTD/svg11.dtd">
<svg version="1.1" id="Layer_1" xmlns="http://www.w3.org/2000/svg" xmlns:xlink="http://www.w3.org/1999/xlink" x="0px" y="0px"
	 width="79px" height="111px" viewBox="0 0 79 111" enable-background="new 0 0 79 111" xml:space="preserve">
<g>
	<g>
		<g>
			<path opacity="0.5" fill="#FFFFFF" d="M67.885,40.463c-2.386-6.797,8.611-24.05,8.611-24.05c1.032-1.852,0.368-4.19-1.484-5.224
				L64.813,5.5c-1.852-1.033-4.19-0.37-5.224,1.481c0,0-8.838,18.458-15.875,19.998c-2.073,0.452-10.919,4.486-18.601,18.256
				L0.654,89.078c-1.032,1.851,1.448,8.076,15.379,15.849c13.149,7.335,20.531,6.611,21.564,4.76l24.457-43.843
				C69.609,52.304,68.588,42.464,67.885,40.463z"/>
			<g>
				<path fill="#433F31" d="M72.948,2.903c-3.805-2.122-7.279-3.142-7.762-2.276l-3.814,6.837c-0.481,0.865,2.211,3.286,6.015,5.407
					c3.805,2.123,7.278,3.143,7.761,2.278l3.814-6.838C79.443,7.447,76.752,5.026,72.948,2.903z"/>
				<g>
					<path fill="#FFFFFF" d="M65.828,1.384c0,0,0.146,0.173,0.429,0.444c0.259,0.292,0.705,0.635,1.193,1.087
						c0.265,0.202,0.552,0.422,0.855,0.653c0.296,0.24,0.627,0.468,0.982,0.685c0.349,0.227,0.709,0.46,1.074,0.697
						c0.373,0.226,0.775,0.415,1.165,0.626c0.393,0.204,0.773,0.435,1.169,0.616c0.403,0.169,0.8,0.336,1.184,0.496
						c0.382,0.168,0.752,0.329,1.102,0.482c0.354,0.146,0.706,0.233,1.022,0.342c1.271,0.412,2.119,0.729,2.119,0.729
						s-0.88-0.159-2.2-0.46c-0.327-0.085-0.691-0.146-1.061-0.267c-0.364-0.133-0.748-0.272-1.146-0.418
						c-0.396-0.151-0.805-0.308-1.221-0.467c-0.407-0.181-0.8-0.409-1.203-0.614c-0.396-0.221-0.804-0.42-1.182-0.655
						c-0.366-0.255-0.727-0.506-1.074-0.749c-0.357-0.23-0.674-0.493-0.958-0.761c-0.29-0.259-0.563-0.504-0.816-0.729
						c-0.468-0.494-0.848-0.909-1.079-1.232C65.938,1.58,65.828,1.384,65.828,1.384z"/>
				</g>
			</g>
		</g>
		<g>
			<polygon fill="#FFFFFF" points="11.734,74.481 26.954,91.842 28.575,75.069 			"/>
			<polygon fill="#FFFFFF" points="30.196,58.296 11.734,74.481 28.575,75.069 			"/>
			<polygon fill="#FFFFFF" points="26.954,91.842 45.416,75.656 28.575,75.069 			"/>
			<polygon fill="#FFFFFF" points="54.099,58.873 30.208,58.31 30.196,58.296 30.195,58.31 30.181,58.31 30.176,58.501 
				28.575,75.069 45.416,75.656 40.262,69.777 53.834,70.099 			"/>
			
				<rect x="28.971" y="58.756" transform="matrix(0.0236 -0.9997 0.9997 0.0236 -24.6511 102.9199)" fill="#FFFFFF" width="22.787" height="10.648"/>
		</g>
	</g>
	<g>
		<path fill="#FFFFFF" d="M36.8,108.513c0,0-0.491-0.384-1.35-1.055c-0.861-0.668-2.123-1.581-3.636-2.675
			c-1.514-1.093-3.312-2.321-5.26-3.604c-1.942-1.291-4.061-2.595-6.212-3.841c-1.086-0.604-2.146-1.255-3.234-1.815
			c-1.087-0.561-2.136-1.156-3.195-1.64c-1.057-0.489-2.052-1.022-3.04-1.428c-0.983-0.415-1.895-0.857-2.771-1.177
			c-0.871-0.334-1.67-0.64-2.378-0.911c-0.71-0.266-1.348-0.443-1.863-0.617c-1.038-0.333-1.632-0.523-1.632-0.523
			s0.602,0.161,1.655,0.442c0.524,0.149,1.173,0.296,1.897,0.527c0.721,0.243,1.533,0.519,2.42,0.818
			c0.89,0.297,1.814,0.716,2.815,1.105c1.005,0.381,2.021,0.882,3.084,1.372c1.07,0.477,2.128,1.065,3.227,1.619
			c1.098,0.554,2.17,1.194,3.266,1.794c2.149,1.271,4.264,2.601,6.201,3.913c1.944,1.303,3.694,2.61,5.187,3.738
			C34.952,106.836,36.8,108.513,36.8,108.513z"/>
	</g>
</g>
</svg>
