<?xml version="1.0" encoding="utf-8"?>
<!-- Generator: Adobe Illustrator 16.0.0, SVG Export Plug-In . SVG Version: 6.00 Build 0)  -->
<!DOCTYPE svg PUBLIC "-//W3C//DTD SVG 1.1//EN" "http://www.w3.org/Graphics/SVG/1.1/DTD/svg11.dtd">
<svg version="1.1" id="Layer_1" xmlns="http://www.w3.org/2000/svg" xmlns:xlink="http://www.w3.org/1999/xlink" x="0px" y="0px"
	 width="2500px" height="198px" viewBox="0 0 2500 198" enable-background="new 0 0 2500 198" xml:space="preserve">
<linearGradient id="SVGID_1_" gradientUnits="userSpaceOnUse" x1="1250.0015" y1="1.0562" x2="1250.0015" y2="220.3527">
	<stop  offset="0" style="stop-color:#0756A5"/>
	<stop  offset="1" style="stop-color:#85BEC9"/>
</linearGradient>
<path fill="url(#SVGID_1_)" d="M2500,118.5c-33.991,0-108.24-49.156-262-60.5c-118.14-8.716-185.117,46.258-323,36
	c-85.834-6.386-243.838-55.688-327-51c-112.335,6.333-176.169,42.64-252,41c-61.667-1.333-142.525-52.024-232.513-52.024
	c-121.5,0-271.979,68.325-339.487,67.022c-259-5-307-96.462-439.936-96.462C144.893,2.537,82.361,120.999,0,120.999v77h2500.004
	C2500.004,197.999,2500,147.5,2500,118.5z"/>
</svg>
